<?xml version="1.0" encoding="utf-8"?>
<!-- Generator: Adobe Illustrator 16.0.0, SVG Export Plug-In . SVG Version: 6.00 Build 0)  -->
<!DOCTYPE svg PUBLIC "-//W3C//DTD SVG 1.1//EN" "http://www.w3.org/Graphics/SVG/1.1/DTD/svg11.dtd">
<svg version="1.1" id="Layer_1" xmlns="http://www.w3.org/2000/svg" xmlns:xlink="http://www.w3.org/1999/xlink" x="0px" y="0px"
	 width="100px" height="100px" viewBox="0 0 100 100" enable-background="new 0 0 100 100" xml:space="preserve">
<g>
	<path d="M48.32,68.813c-0.246,0-0.489-0.091-0.677-0.264L28.269,50.736c-0.206-0.189-0.323-0.457-0.323-0.736
		s0.117-0.547,0.323-0.736l19.375-17.813c0.292-0.269,0.717-0.338,1.079-0.179c0.363,0.159,0.598,0.519,0.598,0.916v9.681
		c13.224,2.542,22.734,12.235,22.734,23.31c0,0.533-0.027,1.089-0.086,1.748c-0.045,0.509-0.468,0.902-0.979,0.911
		c-0.505,0.013-0.946-0.37-1.009-0.878c-0.741-6.029-8.974-9.536-16.13-9.277c-1.596,0.061-3.116,0.24-4.53,0.535v9.595
		c0,0.396-0.235,0.756-0.598,0.916C48.593,68.785,48.456,68.813,48.32,68.813z M30.423,50L47.32,65.535v-8.116
		c0-0.461,0.314-0.861,0.762-0.972c1.756-0.431,3.672-0.688,5.693-0.763c5.837-0.228,12.474,1.842,15.908,5.92
		c-1.839-8.778-10.328-16.038-21.528-17.913c-0.482-0.081-0.835-0.498-0.835-0.986v-8.24L30.423,50z" fill="#FFA500"/>
</g>
</svg>
