<?xml version="1.0" encoding="iso-8859-1"?>
<!-- Generator: Adobe Illustrator 17.1.0, SVG Export Plug-In . SVG Version: 6.00 Build 0)  -->
<!DOCTYPE svg PUBLIC "-//W3C//DTD SVG 1.1//EN" "http://www.w3.org/Graphics/SVG/1.1/DTD/svg11.dtd">
<svg version="1.1" id="Capa_1" xmlns="http://www.w3.org/2000/svg" xmlns:xlink="http://www.w3.org/1999/xlink" x="0px" y="0px"
	 viewBox="0 0 200 200" style="enable-background:new 0 0 200 200;" xml:space="preserve">
<g>
	<path d="M23.433,158.875c8.18,8.18,19.069,12.872,29.875,12.872c9.087,0,17.421-3.33,23.467-9.376l70.702-70.702
		c4.384-4.334,6.55-10.37,6.083-16.978c-0.912-12.894-12.576-24.557-25.47-25.47c-0.581-0.041-1.167-0.062-1.741-0.062
		c-5.908,0-11.333,2.196-15.275,6.183l-61.826,61.826c-1.987,1.987-3.003,4.81-2.788,7.744c0.202,2.757,1.441,5.403,3.487,7.449
		c2.235,2.235,5.237,3.516,8.236,3.516c2.67,0,5.141-1,6.958-2.817l61.864-61.864c0.347-0.35,0.784-0.514,1.35-0.514
		c0.066,0,0.132,0.002,0.198,0.007c1.623,0.119,3.42,1.916,3.54,3.559c0.029,0.426-0.028,1.051-0.475,1.493l-70.736,70.736
		c-2.419,2.419-5.812,3.751-9.555,3.751c-4.799,0-9.682-2.132-13.399-5.848c-3.417-3.417-5.478-7.75-5.804-12.203
		c-0.31-4.232,1.006-8.05,3.707-10.751l79.539-79.54c4.534-4.534,10.859-7.031,17.81-7.031c8.701,0,17.528,3.837,24.218,10.527
		c12.551,12.551,14.119,31.405,3.496,42.028l-61.864,61.864c-1.987,1.987-3.003,4.81-2.788,7.744
		c0.202,2.757,1.441,5.403,3.487,7.449c2.235,2.235,5.237,3.516,8.236,3.516c2.67,0,5.141-1,6.958-2.817l61.864-61.864
		c18.615-18.615,16.42-51.101-4.895-72.416c-11.153-11.153-25.984-17.549-40.69-17.549v2h0l-0.001-2
		c-12.299,0.001-23.564,4.495-31.724,12.655l-79.539,79.539c-6.729,6.729-10.023,16.047-9.276,26.24
		C11.392,141.745,15.928,151.37,23.433,158.875z" fill="#EE7621"/>
</g>
</svg>
