<?xml version="1.0" encoding="utf-8"?>
<!-- Generator: Adobe Illustrator 17.1.0, SVG Export Plug-In . SVG Version: 6.00 Build 0)  -->
<!DOCTYPE svg PUBLIC "-//W3C//DTD SVG 1.1//EN" "http://www.w3.org/Graphics/SVG/1.1/DTD/svg11.dtd">
<svg version="1.1" id="Layer_1" xmlns="http://www.w3.org/2000/svg" xmlns:xlink="http://www.w3.org/1999/xlink" x="0px" y="0px"
	 width="1000px" height="1000px" viewBox="0 0 1000 1000" enable-background="new 0 0 1000 1000" xml:space="preserve">
<g>
	<path d="M843.886,526.882H156.114c-5.523,0-10,4.477-10,10v391.316H87.48c-5.523,0-10,4.477-10,10v26.984c0,5.523,4.477,10,10,10
		H912.52c5.523,0,10-4.477,10-10v-26.984c0-5.523-4.477-10-10-10h-58.634V536.882C853.886,531.359,849.409,526.882,843.886,526.882z
		 M285.23,802.914c0,5.523-4.477,10-10,10h-66.636c-5.523,0-10-4.477-10-10v-66.636c0-5.523,4.477-10,10-10h66.636
		c5.523,0,10,4.477,10,10V802.914z M285.23,654.69c0,5.523-4.477,10-10,10h-66.636c-5.523,0-10-4.477-10-10v-66.636
		c0-5.523,4.477-10,10-10h66.636c5.523,0,10,4.477,10,10V654.69z M414.274,802.914c0,5.523-4.477,10-10,10h-66.636
		c-5.523,0-10-4.477-10-10v-66.636c0-5.523,4.477-10,10-10h66.636c5.523,0,10,4.477,10,10V802.914z M414.274,654.69
		c0,5.523-4.477,10-10,10h-66.636c-5.523,0-10-4.477-10-10v-66.636c0-5.523,4.477-10,10-10h66.636c5.523,0,10,4.477,10,10V654.69z
		 M543.318,895.734c0,5.523-4.477,10-10,10h-66.636c-5.523,0-10-4.477-10-10V736.278c0-5.523,4.477-10,10-10h66.636
		c5.523,0,10,4.477,10,10V895.734z M543.318,654.69c0,5.523-4.477,10-10,10h-66.636c-5.523,0-10-4.477-10-10v-66.636
		c0-5.523,4.477-10,10-10h66.636c5.523,0,10,4.477,10,10V654.69z M672.362,802.914c0,5.523-4.477,10-10,10h-66.636
		c-5.523,0-10-4.477-10-10v-66.636c0-5.523,4.477-10,10-10h66.636c5.523,0,10,4.477,10,10V802.914z M672.362,654.69
		c0,5.523-4.477,10-10,10h-66.636c-5.523,0-10-4.477-10-10v-66.636c0-5.523,4.477-10,10-10h66.636c5.523,0,10,4.477,10,10V654.69z
		 M801.406,802.914c0,5.523-4.477,10-10,10H724.77c-5.523,0-10-4.477-10-10v-66.636c0-5.523,4.477-10,10-10h66.636
		c5.523,0,10,4.477,10,10V802.914z M801.406,654.69c0,5.523-4.477,10-10,10H724.77c-5.523,0-10-4.477-10-10v-66.636
		c0-5.523,4.477-10,10-10h66.636c5.523,0,10,4.477,10,10V654.69z" fill="#EE7621"/>
	<path d="M39.616,502.027h920.768c8.611,0,13.196-10.159,7.498-16.616L758.895,248.56c-1.898-2.151-4.629-3.384-7.498-3.384h-354.29
		c-5.523,0-10-4.477-10-10V168c0-5.523-4.477-10-10-10h-48.681c-5.523,0-10,4.477-10,10v67.176c0,5.523-4.477,10-10,10h-59.822
		c-2.869,0-5.6,1.232-7.498,3.384L32.118,485.411C26.42,491.868,31.005,502.027,39.616,502.027z" fill="#EE7621"/>
</g>
</svg>
