<?xml version="1.0" encoding="utf-8"?>
<!-- Generator: Adobe Illustrator 16.0.0, SVG Export Plug-In . SVG Version: 6.00 Build 0)  -->
<!DOCTYPE svg PUBLIC "-//W3C//DTD SVG 1.1//EN" "http://www.w3.org/Graphics/SVG/1.1/DTD/svg11.dtd">
<svg version="1.1" id="Layer_3" xmlns="http://www.w3.org/2000/svg" xmlns:xlink="http://www.w3.org/1999/xlink" x="0px" y="0px"
	 width="126px" height="126px" viewBox="0 0 126 126" enable-background="new 0 0 126 126" xml:space="preserve">
<path d="M105.532,22.635c-0.172-0.356-0.482-0.628-0.858-0.753L41.721,0.931c-0.751-0.254-1.566,0.14-1.84,0.885L27.748,34.715
	c-0.137,0.369-0.118,0.779,0.05,1.134c0.168,0.356,0.472,0.632,0.844,0.759l3.183,1.108c1.168,4.462,5.215,7.759,10.044,7.759
	c2.345,0,4.5-0.785,6.239-2.095l11.963,4.162l-1.607,3.232c-2.66-1.325-6.298-2.566-11.142-3.852
	c-0.267-0.069-0.535-0.111-0.8-0.127c-0.669-0.301-1.362-0.546-2.063-0.718l-2.59,2.606l-2.511-2.636
	c-0.009,0.002-0.017,0.003-0.026,0.005c-1.921,0.459-3.789,1.434-5.249,2.802c-8.015,5.392-11.428,12.534-13.719,28.158
	c-0.324,2.205,1.202,4.255,3.407,4.578c0.199,0.03,0.396,0.045,0.591,0.045c1.97,0,3.693-1.444,3.988-3.452
	c0.825-5.621,1.779-9.728,2.878-12.832v12.709c0,1.087,0.21,2.098,0.58,3.03c-0.028,0.209-0.047,0.422-0.047,0.639l0.001,22.729
	l-8.719,17.532c-0.362,0.726-0.066,1.606,0.66,1.968c0.21,0.104,0.433,0.152,0.652,0.152c0.54,0,1.059-0.298,1.315-0.813
	l6.092-12.249l0.001,9.327c0,2.636,2.136,4.77,4.77,4.77s4.77-2.135,4.77-4.77l-0.002-28.505l0.678-1.364l-0.001,29.869
	c0,2.635,2.135,4.77,4.77,4.77h0c2.634,0,4.769-2.135,4.769-4.77l0.001-38.409c0.625-1.158,0.99-2.469,0.99-3.905v-8.724
	l3.594-7.229c0.17,0.292,0.37,0.571,0.619,0.822c0.789,0.796,1.827,1.193,2.865,1.193c1.027,0,2.055-0.389,2.842-1.17
	c2.48-2.46,2.274-4.989,1.93-6.277c-0.442-1.653-1.511-3.085-3.364-4.403l1.87-3.761l28.624,9.958
	c0.16,0.056,0.323,0.083,0.482,0.083c0.601,0,1.164-0.373,1.38-0.97l12.239-33.81C105.726,23.402,105.705,22.99,105.532,22.635z
	 M41.893,49.07l2.506,16.759l-2.506,3.431h-0.048l-2.507-3.431l1.941-12.982c0.193-0.521,0.277-1.076,0.245-1.635l0.321-2.142
	H41.893z M52.509,56.991c0.998,0.382,1.764,0.721,2.358,1.015l-2.358,4.74V56.991z M91.084,55.222l-40.72-14.164
	c1.193-1.692,1.899-3.751,1.899-5.979c0-5.739-4.654-10.396-10.395-10.396c-5.544,0-10.062,4.345-10.365,9.813l-0.486-0.168
	L42.142,4.164l60.177,20.027L91.084,55.222z" fill="#FA7F33"/>
</svg>
