<?xml version="1.0" encoding="utf-8"?>
<!-- Generator: Adobe Illustrator 16.0.0, SVG Export Plug-In . SVG Version: 6.00 Build 0)  -->
<!DOCTYPE svg PUBLIC "-//W3C//DTD SVG 1.1//EN" "http://www.w3.org/Graphics/SVG/1.1/DTD/svg11.dtd">
<svg version="1.1" id="Layer_1" xmlns="http://www.w3.org/2000/svg" xmlns:xlink="http://www.w3.org/1999/xlink" x="0px" y="0px"
	 width="100px" height="100px" viewBox="0 0 100 100" enable-background="new 0 0 100 100" xml:space="preserve">
<g>
	<path d="M50.178,74.12l-0.686-0.612c-0.556-0.495-1.378-1.382-2.624-2.724c-3.081-3.317-8.814-11.493-18.672-20.483l-0.188-0.182
		l-0.005,0.006l-0.25-0.26C25.341,47.491,24,44.375,24,41.116c0-7.101,6.29-12.877,14.021-12.877c6.048,0,10.654,6.14,11.921,8.022
		l0.149-0.035c1.233-1.847,5.838-7.987,11.889-7.987C69.71,28.239,76,34.015,76,41.116c0,3.593-1.594,6.939-4.488,9.427
		l-0.048,0.051c-10.281,9.379-15.68,17.435-18.581,20.688c-0.953,1.069-1.583,1.775-2.037,2.206L50.178,74.12z M29.441,48.729
		l0.102,0.093c9.92,9.047,15.69,17.263,18.791,20.602c0.731,0.788,1.335,1.438,1.803,1.92c0.341-0.37,0.759-0.839,1.253-1.393
		c2.925-3.28,8.368-11.387,18.676-20.787l0.107-0.109C72.642,46.95,74,44.13,74,41.116c0-5.998-5.393-10.877-12.021-10.877
		c-4.022,0-7.939,3.688-10.264,7.139c-0.361,0.541-1.004,0.865-1.716,0.865s-1.354-0.324-1.718-0.867
		c-2.323-3.449-6.239-7.137-10.261-7.137C31.392,30.239,26,35.118,26,41.116c0,2.719,1.129,5.329,3.18,7.348l0.143,0.15
		l-0.634,0.783l0.707-0.707C29.41,48.702,29.425,48.716,29.441,48.729L29.441,48.729z M28.689,49.397l-0.675,0.717l0.38-0.325
		L28.689,49.397z" fill="#EE7621"/>
</g>
</svg>
