<?xml version="1.0" encoding="utf-8"?>
<!-- Generator: Adobe Illustrator 16.0.0, SVG Export Plug-In . SVG Version: 6.00 Build 0)  -->
<!DOCTYPE svg PUBLIC "-//W3C//DTD SVG 1.1//EN" "http://www.w3.org/Graphics/SVG/1.1/DTD/svg11.dtd">
<svg version="1.1" id="Layer_1" xmlns="http://www.w3.org/2000/svg" xmlns:xlink="http://www.w3.org/1999/xlink" x="0px" y="0px"
	 width="100px" height="100px" viewBox="0 0 100 100" enable-background="new 0 0 100 100" xml:space="preserve">
<g>
	<path d="M52.681,75.441c-0.26,0-0.508-0.101-0.695-0.281c-0.041-0.039-4.268-4.129-21.178-21.038l-0.117-0.118
		c-0.133-0.131-0.197-0.205-0.26-0.279c-2.553-2.76-3.928-6.255-3.928-9.907c0-7.995,6.506-14.5,14.5-14.5
		c4.566,0,8.764,2.101,11.5,5.688c2.736-3.588,6.936-5.688,11.5-5.688c7.996,0,14.5,6.505,14.5,14.5
		c0,4.046-1.637,7.806-4.609,10.584c0.008,0.001-0.027,0.04-0.066,0.079C56.813,71.494,53.444,75.09,53.411,75.123
		c-0.184,0.197-0.438,0.311-0.705,0.318C52.698,75.441,52.688,75.441,52.681,75.441z" fill="#EE7621"/>
</g>
</svg>
