<?xml version="1.0" encoding="iso-8859-1"?>
<!-- Generator: Adobe Illustrator 18.0.0, SVG Export Plug-In . SVG Version: 6.00 Build 0)  -->
<!DOCTYPE svg PUBLIC "-//W3C//DTD SVG 1.1//EN" "http://www.w3.org/Graphics/SVG/1.1/DTD/svg11.dtd">
<svg version="1.1" id="Capa_1" xmlns="http://www.w3.org/2000/svg" xmlns:xlink="http://www.w3.org/1999/xlink" x="0px" y="0px"
	 viewBox="0 0 19.752 21.134" style="enable-background:new 0 0 19.752 21.134;" xml:space="preserve">
<path d="M15.038,21.134h-2.645c-0.276,0-0.5-0.224-0.5-0.5v-4.639c0-0.601-0.489-1.09-1.09-1.09H8.949
	c-0.601,0-1.09,0.489-1.09,1.09v4.639c0,0.276-0.224,0.5-0.5,0.5H4.704c-1.153,0-2.09-0.938-2.09-2.09v-7.27
	c-0.609,0.026-1.592,0.05-1.593,0.05c-0.146,0.018-0.28-0.045-0.38-0.146c-0.85-0.85-0.854-2.515-0.01-3.361l7.702-7.701
	c0.821-0.822,2.254-0.822,3.077,0l7.701,7.701c0.851,0.853,0.857,2.518,0.013,3.361c-0.1,0.101-0.233,0.164-0.38,0.146
	c-0.003,0-0.988-0.058-1.616-0.05v7.27C17.128,20.197,16.191,21.134,15.038,21.134z M12.894,20.134h2.145
	c0.601,0,1.09-0.489,1.09-1.09v-7.719c0-0.551,0.585-0.551,1.055-0.551c0.44,0,1.029,0.024,1.36,0.039
	c0.327-0.506,0.278-1.369-0.141-1.789l-7.701-7.701c-0.444-0.443-1.218-0.443-1.663,0L1.338,9.025
	c-0.414,0.415-0.453,1.28-0.119,1.789c0.328-0.015,0.91-0.039,1.345-0.039c0.467,0,1.049,0,1.049,0.551v7.719
	c0,0.601,0.489,1.09,1.09,1.09h2.155v-4.139c0-1.152,0.938-2.09,2.09-2.09h1.855c1.152,0,2.09,0.938,2.09,2.09V20.134z" fill="#EE4000"/>
<g>
</g>
<g>
</g>
<g>
</g>
<g>
</g>
<g>
</g>
<g>
</g>
<g>
</g>
<g>
</g>
<g>
</g>
<g>
</g>
<g>
</g>
<g>
</g>
<g>
</g>
<g>
</g>
<g>
</g>
</svg>
