<?xml version="1.0" encoding="utf-8"?>
<!-- Generator: Adobe Illustrator 16.0.0, SVG Export Plug-In . SVG Version: 6.00 Build 0)  -->
<!DOCTYPE svg PUBLIC "-//W3C//DTD SVG 1.1//EN" "http://www.w3.org/Graphics/SVG/1.1/DTD/svg11.dtd">
<svg version="1.1" id="Layer_1" xmlns="http://www.w3.org/2000/svg" xmlns:xlink="http://www.w3.org/1999/xlink" x="0px" y="0px"
	 width="100px" height="100px" viewBox="0 0 100 100" enable-background="new 0 0 100 100" xml:space="preserve">
<g>
	<path d="M53.379,36.916c-2.959,0-5.365,2.408-5.365,5.367s2.406,5.365,5.365,5.365s5.367-2.406,5.367-5.365
		S56.338,36.916,53.379,36.916z" fill="#EE7621"/>
	<path d="M53.379,16.814c-12.939,0-23.467,10.527-23.467,23.469c0,12.014,19.16,38.42,21.346,41.393l0.803,1.092
		c0.307,0.42,0.8,0.67,1.318,0.67c0.52,0,1.013-0.25,1.316-0.666l0.807-1.096c2.184-2.973,21.344-29.379,21.344-41.393
		C76.846,27.342,66.319,16.814,53.379,16.814z M53.379,51.916c-5.312,0-9.633-4.32-9.633-9.633s4.321-9.635,9.633-9.635
		c5.313,0,9.635,4.322,9.635,9.635S58.692,51.916,53.379,51.916z M68.099,38.49c-0.216,0.074-0.437,0.111-0.653,0.111
		c-0.829,0-1.604-0.521-1.891-1.35c-1.59-4.605-5.736-7.971-10.563-8.572c-1.097-0.137-1.874-1.137-1.738-2.232
		c0.138-1.096,1.137-1.875,2.232-1.736c6.33,0.789,11.766,5.199,13.85,11.236C69.698,36.992,69.143,38.131,68.099,38.49z" fill="#EE7621"/>
</g>
</svg>
