<?xml version="1.0" encoding="utf-8"?>
<!-- Generator: Adobe Illustrator 16.0.0, SVG Export Plug-In . SVG Version: 6.00 Build 0)  -->
<!DOCTYPE svg PUBLIC "-//W3C//DTD SVG 1.1//EN" "http://www.w3.org/Graphics/SVG/1.1/DTD/svg11.dtd">
<svg version="1.1" id="Layer_2" xmlns="http://www.w3.org/2000/svg" xmlns:xlink="http://www.w3.org/1999/xlink" x="0px" y="0px"
	 width="126px" height="126px" viewBox="0 0 126 126" enable-background="new 0 0 126 126" xml:space="preserve">
<g>
	<circle fill="#FFFFFF" cx="81.268" cy="14.196" r="12.735"/>
	<path fill="#FFFFFF" d="M96.152,69.757v2.438H85.591v26.111h35.36V72.195h-10.56v-2.438c0-1.187-0.965-2.154-2.153-2.154h-0.202
		c0.178-0.642,0.231-1.33,0.128-2.032c-2.957-20.164-7.435-28.799-18.425-35.538c-0.214-0.131-0.437-0.225-0.66-0.32
		c-1.42-0.946-3.014-1.643-4.639-2.042l-3.173,3.194l-3.075-3.229c-0.01,0.002-0.022,0.002-0.032,0.006
		c-2.353,0.563-4.641,1.755-6.43,3.431c-1.397,0.941-2.662,1.937-3.839,2.993c-3.16,2.135-5.825,4.842-8.403,7.474
		c-5.934,6.049-9.938,9.719-17.018,9.114c-3.103-0.259-5.813,2.022-6.078,5.111c-0.268,3.09,2.021,5.812,5.111,6.079
		c0.846,0.072,1.667,0.108,2.467,0.108c11.231,0,18.015-6.919,23.536-12.551c0.07-0.072,0.14-0.142,0.21-0.214
		c0.279,0.889,0.517,2.098,0.517,2.098v15.567c0,1.331,0.257,2.571,0.712,3.714c-0.036,0.256-0.059,0.517-0.059,0.782l0.002,47.348
		c0,3.227,2.617,5.843,5.844,5.843c3.229,0,5.843-2.616,5.843-5.846l-0.002-40.632c0.231,0.01,0.463,0.029,0.694,0.029
		c0.048,0,0.092-0.006,0.14-0.006l-0.004,40.611c0,3.227,2.618,5.843,5.843,5.843c3.229,0,5.846-2.616,5.846-5.843v-18.409h-9.298
		V70.58h9.792c0.459-1.145,0.718-2.389,0.718-3.728V49.823c1.584,3.949,2.932,9.376,4.077,17.183
		c0.029,0.206,0.089,0.401,0.143,0.597h-0.219C97.118,67.603,96.152,68.57,96.152,69.757z M81.298,56.07h-0.059l-3.071-4.204
		l2.378-15.901c0.239-0.64,0.339-1.319,0.301-2.006l0.393-2.622h0.059l3.073,20.529L81.298,56.07z M99.432,69.401
		c0.919,1.131,2.317,1.832,3.835,1.832c0.239,0,0.48-0.017,0.722-0.053c1.278-0.188,2.365-0.851,3.117-1.779h1.133
		c0.197,0,0.354,0.16,0.354,0.355v2.438H97.949v-2.438c0-0.195,0.16-0.355,0.355-0.355H99.432z"/>
	<path fill="#FFFFFF" d="M41.242,73.59l-0.402,7.092l2.199,0.125l0.599-10.525l-1.837-0.103l-0.1,0.401
		c-0.14,0.551-0.509,1.271-2.116,1.181l-0.502-0.028l-0.11,1.943l0.503,0.03C40.17,73.744,40.756,73.707,41.242,73.59z"/>
	<path fill="#FFFFFF" d="M50.949,81.505c-1.364,2.042-3.429,3.577-5.848,4.267c1.234,0.346,1.954,0.634,1.954,0.634
		c1.351,0.392,1.731,0.8,1.731,1.788c0,0.989-0.744,1.788-1.731,1.788c-5.957-2.384-11.62-1.788-11.62-1.788
		c-0.985,0-1.785-0.8-1.785-1.788c0-0.983,0.8-1.787,1.785-1.787c0.435-0.019,0.859-0.025,1.278-0.025
		c-2.449-1.526-4.22-4.027-4.769-6.961c-3.604,0.421-6.318,1.257-6.318,1.257s-9.718-4.25-12.408-3.184
		c-2.686,1.067-0.333,5.521,1.701,7.595c-4.188,3.794-6.864,8.718-7.249,14.14c-0.927,2.463-2.62,2.04-2.622,2.04v8.836
		c0,0,4.124-0.229,7.056,2.991c1.456,1.853,3.223,3.521,5.247,4.964c0.521,0.521-0.572,4.768-0.572,4.768l7.037,0.67
		c0,0,0.004-1.562,0.614-1.722c0.363,0.133,0.73,0.26,1.101,0.382c0.627,0.481,1.678,3.499,1.678,3.499l4.559,0.03
		c0,0,0.744-2.043,1.055-2.013c1.115,0.105,2.248,0.16,3.396,0.16c3.233,0,5.151-0.101,7.928-0.904
		c1.729-0.27,0.764,2.536,0.764,2.536l6.633-0.512c0,0,0.002-5.947,1.436-6.63c6.598-4.229,8.318-9.537,8.318-16.909
		C61.297,92.14,57.404,85.532,50.949,81.505z M16.558,93.084c-1.232,0-2.231-1.001-2.231-2.234c0-1.235,0.999-2.235,2.231-2.235
		c1.236,0,2.233,1.001,2.233,2.235C18.791,92.083,17.794,93.084,16.558,93.084z"/>
	<path fill="#FFFFFF" d="M40.252,84.5c4.915,0.938,9.68-2.3,10.619-7.222c0.938-4.919-2.3-9.683-7.218-10.621
		c-4.917-0.939-9.682,2.3-10.621,7.219C32.093,78.797,35.332,83.562,40.252,84.5z M34.977,74.246
		c0.734-3.847,4.459-6.378,8.307-5.645c3.847,0.734,6.375,4.459,5.642,8.306c-0.732,3.848-4.46,6.381-8.305,5.646
		C36.775,81.821,34.242,78.095,34.977,74.246z"/>
</g>
</svg>
