<?xml version="1.0" encoding="utf-8"?>
<!-- Generator: Adobe Illustrator 16.0.0, SVG Export Plug-In . SVG Version: 6.00 Build 0)  -->
<!DOCTYPE svg PUBLIC "-//W3C//DTD SVG 1.1//EN" "http://www.w3.org/Graphics/SVG/1.1/DTD/svg11.dtd">
<svg version="1.1" id="Layer_1" xmlns="http://www.w3.org/2000/svg" xmlns:xlink="http://www.w3.org/1999/xlink" x="0px" y="0px"
	 width="100px" height="100px" viewBox="0 0 100 100" enable-background="new 0 0 100 100" xml:space="preserve">
<path d="M74.372,69.28L61.444,56.352c-0.441-0.443-0.999-0.722-1.59-0.858c2.236-3.158,3.563-7.003,3.563-11.16
	c0-10.692-8.697-19.39-19.39-19.39c-10.692,0-19.39,8.697-19.39,19.39c0,10.691,8.698,19.389,19.39,19.389
	c4.438,0,8.518-1.52,11.788-4.041c0.152,0.532,0.423,1.037,0.841,1.456l12.93,12.929c0.64,0.64,1.489,0.991,2.394,0.991
	s1.754-0.352,2.393-0.991c0.64-0.64,0.992-1.49,0.991-2.396C75.363,70.767,75.011,69.918,74.372,69.28z M26.636,44.333
	c0-9.589,7.801-17.39,17.39-17.39c9.588,0,17.389,7.801,17.389,17.39c0,4.599-1.809,8.775-4.734,11.889
	c-0.014,0.012-0.028,0.017-0.043,0.028c-0.02,0.021-0.025,0.048-0.045,0.067c-3.168,3.321-7.625,5.403-12.565,5.403
	C34.438,61.722,26.636,53.92,26.636,44.333z M72.958,72.652c-0.523,0.524-1.435,0.523-1.958,0L58.07,59.724
	c-0.539-0.54-0.539-1.419,0-1.959c0.262-0.262,0.61-0.406,0.98-0.406s0.717,0.145,0.979,0.406l12.93,12.931
	c0.261,0.261,0.404,0.607,0.404,0.977C73.364,72.042,73.22,72.391,72.958,72.652z" fill="#FFFFFF"/>
</svg>
