<?xml version="1.0" encoding="utf-8"?>
<!-- Generator: Adobe Illustrator 16.0.0, SVG Export Plug-In . SVG Version: 6.00 Build 0)  -->
<!DOCTYPE svg PUBLIC "-//W3C//DTD SVG 1.1//EN" "http://www.w3.org/Graphics/SVG/1.1/DTD/svg11.dtd">
<svg version="1.1" id="Layer_1" xmlns="http://www.w3.org/2000/svg" xmlns:xlink="http://www.w3.org/1999/xlink" x="0px" y="0px"
	 width="50px" height="50px" viewBox="0 0 50 50" enable-background="new 0 0 50 50" xml:space="preserve">
<g>
	<path d="M24.457,32.067c-0.221-0.746-0.699-1.272-1.171-1.311l-0.181,0.008l-0.011,0.003l-0.033,0.008l-0.019,0.005l-0.04,0.013
		l-0.018,0.007l-0.026,0.011l-0.019,0.009l-0.036,0.019l-0.02,0.012l-0.021,0.014l-0.017,0.011
		c-0.149,0.048-0.268,0.194-0.349,0.407l-0.114,0.126l-0.214,0.13c-0.102,0.068-0.176,0.22-0.216,0.426
		c-0.052,0.184-0.073,0.404-0.06,0.638c-0.192,0.042-0.383,0.085-0.575,0.128l0,0.001c-0.063,0.026-0.091,0.157-0.063,0.304
		c0.03,0.156,0.113,0.271,0.185,0.257l0.012-0.004c0.18-0.04,0.361-0.08,0.541-0.12c0.083,0.273,0.207,0.502,0.35,0.66
		c0.076,0.094,0.155,0.156,0.233,0.181l0.19,0.046l0.218,0.148l0.166,0.051l0.246,0.14c0.139,0.061,0.282,0.081,0.422,0.055
		c0.55-0.107,0.866-0.907,0.75-1.835l0.013-0.003l0.004,0.004l0.006-0.001l-0.004-0.005l0.015-0.003l-0.007,0.006l0.006-0.001
		l0.007-0.006l0.022-0.005l0.004,0.004l0.005-0.001L24.638,32.6l0.021-0.004l-0.006,0.006l0.006-0.001l0.006-0.006l0.017-0.003
		l0.003,0.004l0.006-0.001l-0.003-0.004l0.025-0.006l-0.006,0.007l0.007-0.002l0.007-0.006l0.01-0.002l0.004,0.004l0.005-0.002
		l-0.003-0.004l0.034-0.007l-0.006,0.006l0.006-0.002l0.006-0.005l0.003,0l0.003,0.003l0.006-0.001l-0.003-0.004l0.041-0.008
		l-0.006,0.005l0.007-0.001l0.003-0.004l0.001,0.001l0.006,0l-0.003-0.004l0.044-0.009h0l-0.005,0.005l0.006-0.002l0.001,0v0
		l0.006-0.001l-0.002-0.003l0,0l0.042-0.01l0.002,0.003h0l0.006-0.001l0.006-0.005l0.035-0.008l0.002,0.003l0.005-0.001l0.007-0.002
		l0.005-0.004l0.029-0.006l0.001,0.002l0.006,0l-0.001-0.003l0.014-0.003l-0.005,0.004l0.006-0.001l0.005-0.004l0.023-0.005
		l0.002,0.003l0.006-0.002l-0.002-0.002l0.018-0.004l-0.004,0.004l0.007-0.002l0.004-0.004l0.019-0.004l0.001,0.002l0.006-0.001
		l-0.002-0.002l0.024-0.006l-0.004,0.004l0.006-0.001l0.005-0.004l0.011-0.002l0.002,0.002l0.005-0.001l0-0.002l0.031-0.008
		l-0.004,0.003l0.006-0.001l0.004-0.003l0.003-0.001l0.001,0.002l0.006-0.001l-0.001-0.002l0.038-0.008l-0.004,0.003l0.006-0.001
		l0.003-0.003l0.001,0.001l0.005-0.001l-0.001-0.002l0.044-0.01l-0.003,0.003l0.006-0.001l0.004-0.001l0-0.001v0l0.043-0.01
		l0.001,0.002h0l0.005-0.001h0.001l0.003-0.002l0.038-0.008l0.001,0.001l0.006,0l-0.001-0.001l0.006-0.001l-0.003,0.002l0.007-0.001
		l0.002-0.002l0.031-0.007l0,0.001l0.006-0.001l0-0.001l0.013-0.003l-0.002,0.002l0.006-0.001l0.002-0.001l0.024-0.005v0.001
		l0.006-0.002l0-0.001l0.018-0.003l-0.001,0.001l0.006-0.001l0.002-0.002l0.02-0.004l0.001,0l0.006-0.001l-0.001-0.001l0.024-0.005
		L25.6,32.394l0.006-0.001l0.001-0.001l0.012-0.003l0,0l0.006,0l0-0.001l0.03-0.006l-0.001,0.001l0.007-0.001l0.001-0.001
		l0.008-0.001v0l0.006-0.001v0l0.036-0.008l-0.001,0.001l0.007-0.002l0,0h0l0.006-0.001v-0.001l0.042-0.008v0l0.006-0.001
		l0.003-0.001h0l0.044-0.009l0.005-0.001l0.005-0.001l0.123-0.027c0.237,0.797,0.702,1.354,1.105,1.282l0.023-0.005l0.262,0.003
		c0.289-0.051,0.514-0.281,0.645-0.615l0.132-0.139c0.275-0.137,0.428-0.571,0.377-1.074l0.219-0.048
		c0.083-0.173,0.024-0.44-0.125-0.562l-0.23,0.051c-0.155-0.377-0.417-0.635-0.679-0.665l-0.06-0.003l-0.097-0.046
		c-0.275-0.322-0.609-0.495-0.929-0.438l-0.027,0.006l-0.008,0.001c-0.098,0.017-0.188,0.054-0.271,0.106
		c-0.381,0.112-0.568,0.787-0.456,1.596C25.375,31.867,24.917,31.967,24.457,32.067z M24.935,32.537L24.935,32.537l0.002-0.001
		L24.935,32.537z M24.986,32.528l-0.002-0.003l0.006-0.001L24.986,32.528z" fill="#F4D73D"/>
	<path d="M32.968,21.524h-0.779V10.157h-4.553v10.988H25.25V10.157h-0.5v10.988h-2.406V10.157h-4.553v11.367h-0.759
		c-0.419,0-0.759,0.34-0.759,0.759c0,0.419,0.34,0.759,0.759,0.759h2.389c0.208,0.229,0.501,0.379,0.836,0.379h3.681
		c-0.044,0.122-0.076,0.249-0.076,0.378c0,0.303,0.121,0.592,0.333,0.804c0.099,0.099,0.218,0.173,0.344,0.229
		c-0.188,0.132-0.366,0.34-0.517,0.64l-0.547,1.095l-1.021-0.674c-1.003-0.662-1.764-0.223-1.692,0.977l0.073,1.221l-1.222-0.073
		c-1.199-0.072-1.638,0.689-0.977,1.692l0.674,1.021l-1.095,0.547c-1.074,0.538-1.074,1.416,0,1.954l1.095,0.547l-0.674,1.021
		c-0.662,1.003-0.222,1.764,0.977,1.692l1.222-0.074l-0.073,1.222c-0.072,1.199,0.689,1.639,1.692,0.977l1.021-0.674l0.547,1.095
		c0.538,1.074,1.416,1.074,1.954,0l0.547-1.095l1.021,0.674c1.003,0.662,1.764,0.222,1.692-0.977l-0.074-1.222l1.222,0.074
		c1.199,0.071,1.638-0.689,0.977-1.692l-0.674-1.021l1.095-0.547c1.074-0.538,1.074-1.416,0-1.954l-1.095-0.547l0.674-1.021
		c0.661-1.003,0.222-1.764-0.977-1.692l-1.222,0.073l0.074-1.221c0.071-1.2-0.689-1.639-1.692-0.977l-1.021,0.674l-0.547-1.095
		c-0.15-0.299-0.327-0.506-0.515-0.639c0.125-0.057,0.244-0.131,0.343-0.23c0.212-0.212,0.333-0.5,0.333-0.804
		c0-0.129-0.033-0.256-0.076-0.378h3.681c0.334,0,0.628-0.15,0.836-0.379h2.389c0.419,0,0.759-0.34,0.759-0.759
		C33.727,21.864,33.387,21.524,32.968,21.524z M29.933,32.255c0,2.725-2.208,4.933-4.933,4.933s-4.933-2.208-4.933-4.933
		s2.208-4.933,4.933-4.933S29.933,29.531,29.933,32.255z" fill="#F4D73D"/>
</g>
</svg>
