<?xml version="1.0" encoding="utf-8"?>
<!-- Generator: Adobe Illustrator 16.0.4, SVG Export Plug-In . SVG Version: 6.00 Build 0)  -->
<!DOCTYPE svg PUBLIC "-//W3C//DTD SVG 1.1//EN" "http://www.w3.org/Graphics/SVG/1.1/DTD/svg11.dtd">
<svg version="1.1" id="Capa_1" xmlns="http://www.w3.org/2000/svg" xmlns:xlink="http://www.w3.org/1999/xlink" x="0px" y="0px"
	 width="100px" height="100px" viewBox="0 0 100 100" enable-background="new 0 0 100 100" xml:space="preserve">
<g id="Layer_8">
	<path d="M68.844,44.297H9.063c-1.059,0-1.918,0.859-1.918,1.919v29.442c0,1.061,0.859,1.919,1.918,1.919h59.781
		c1.061,0,1.92-0.859,1.92-1.919V46.217C70.764,45.157,69.904,44.297,68.844,44.297z M66.926,67.688
		c-0.533-0.222-1.117-0.346-1.729-0.346c-2.48,0-4.492,2.012-4.492,4.492c0,0.684,0.158,1.327,0.43,1.906H16.658
		c0.271-0.579,0.428-1.225,0.428-1.906c0-2.48-2.01-4.492-4.49-4.492c-0.57,0-1.111,0.11-1.613,0.305V53.938
		c0.502,0.192,1.043,0.304,1.613,0.304c2.48,0,4.49-2.011,4.49-4.492c0-0.569-0.109-1.112-0.303-1.613H61.01
		c-0.193,0.5-0.305,1.043-0.305,1.613c0,2.479,2.012,4.492,4.492,4.492c0.611,0,1.195-0.124,1.729-0.347V67.688z M29.709,54.266
		h4.221c-2.107,1.562-3.48,4.06-3.48,6.883c0,2.582,1.146,4.891,2.951,6.463H29.71v4.223H48.2v-4.223h-3.553
		c1.805-1.572,2.949-3.881,2.949-6.463c0-2.823-1.371-5.321-3.479-6.883h4.082v-4.223h-18.49V54.266z M35.967,58.623
		c0-1.754,1.42-3.175,3.174-3.175s3.176,1.421,3.176,3.175c0,1.116-0.578,2.096-1.451,2.662c1.656,0.611,2.84,2.199,2.84,4.068
		h-8.68c0-1.766,1.055-3.281,2.568-3.961C36.623,60.852,35.967,59.814,35.967,58.623z M81.432,35.604v29.442
		c0,1.06-0.858,1.919-1.92,1.919h-6.982V58.22c0.82-0.913,2.011-1.491,3.337-1.491c0.61,0,1.194,0.123,1.727,0.346V43.281
		c-0.53,0.222-1.114,0.346-1.727,0.346c-2.479,0-4.492-2.011-4.492-4.492c0-0.569,0.11-1.112,0.306-1.613H27.451
		c0.193,0.501,0.303,1.044,0.303,1.613c0,1.388-0.629,2.627-1.617,3.451h-8.324v-6.983c0-1.061,0.859-1.919,1.92-1.919h59.779
		C80.572,33.684,81.432,34.543,81.432,35.604z M58.867,39.429v3.157h-18.49v-3.157H58.867z M92.855,24.341v29.442
		c0,1.06-0.859,1.919-1.918,1.919h-6.984v-8.745c0.822-0.914,2.01-1.492,3.336-1.492c0.613,0,1.195,0.124,1.729,0.346V32.019
		c-0.533,0.222-1.115,0.346-1.729,0.346c-2.48,0-4.49-2.011-4.49-4.492c0-0.569,0.109-1.112,0.303-1.613H38.875
		c0.193,0.501,0.305,1.044,0.305,1.613c0,1.388-0.631,2.627-1.619,3.451h-8.324v-6.983c0-1.061,0.859-1.919,1.92-1.919h59.78
		C91.996,22.421,92.855,23.28,92.855,24.341z M70.291,28.167v3.157h-18.49v-3.157H70.291z" fill="#EE7621"/>
</g>
</svg>
