<?xml version="1.0" encoding="utf-8"?>
<!-- Generator: Adobe Illustrator 18.0.0, SVG Export Plug-In . SVG Version: 6.00 Build 0)  -->
<!DOCTYPE svg PUBLIC "-//W3C//DTD SVG 1.1//EN" "http://www.w3.org/Graphics/SVG/1.1/DTD/svg11.dtd">
<svg version="1.1" id="Capa_1" xmlns="http://www.w3.org/2000/svg" xmlns:xlink="http://www.w3.org/1999/xlink" x="0px" y="0px"
	 viewBox="0 0 612 792" enable-background="new 0 0 612 792" xml:space="preserve">
<g id="more">
	<g>
		<path d="M76.5,319.5C34.3,319.5,0,353.8,0,396s34.3,76.5,76.5,76.5S153,438.2,153,396S118.7,319.5,76.5,319.5z M76.5,434.2
			c-21.1,0-38.2-17.1-38.2-38.2s17.1-38.2,38.2-38.2c21.1,0,38.2,17.1,38.2,38.2S97.6,434.2,76.5,434.2z M535.5,319.5
			c-42.2,0-76.5,34.3-76.5,76.5s34.3,76.5,76.5,76.5S612,438.2,612,396S577.7,319.5,535.5,319.5z M535.5,434.2
			c-21.1,0-38.2-17.1-38.2-38.2s17.1-38.2,38.2-38.2c21.1,0,38.2,17.1,38.2,38.2S556.6,434.2,535.5,434.2z M306,319.5
			c-42.2,0-76.5,34.3-76.5,76.5s34.3,76.5,76.5,76.5s76.5-34.3,76.5-76.5S348.2,319.5,306,319.5z M306,434.2
			c-21.1,0-38.2-17.1-38.2-38.2s17.1-38.2,38.2-38.2c21.1,0,38.2,17.1,38.2,38.2S327.1,434.2,306,434.2z" fill="#EE4000"/>
	</g>
</g>
</svg>
