<?xml version="1.0" encoding="utf-8"?>
<!-- Generator: Adobe Illustrator 18.0.0, SVG Export Plug-In . SVG Version: 6.00 Build 0)  -->
<!DOCTYPE svg PUBLIC "-//W3C//DTD SVG 1.1//EN" "http://www.w3.org/Graphics/SVG/1.1/DTD/svg11.dtd">
<svg version="1.1" id="Capa_1" xmlns:sketch="http://www.bohemiancoding.com/sketch/ns"
	 xmlns="http://www.w3.org/2000/svg" xmlns:xlink="http://www.w3.org/1999/xlink" x="0px" y="0px" viewBox="0 0 32 32"
	 enable-background="new 0 0 32 32" xml:space="preserve">
<title>icon 101 folder search</title>
<desc>Created with Sketch.</desc>
<g>
	<circle cx="14.5" cy="16.5" r="3.5" fill="#D3D3D3"/>
	<path d="M29,9H17l-2-4H4C2.9,5,2,5.9,2,7v18c0,1.1,0.9,2,2,2h25c1.1,0,2-0.9,2-2V11C31,9.9,30.1,9,29,9z M22.7,25.4L17.3,20
		c-0.8,0.6-1.7,1-2.8,1C12,21,10,19,10,16.5s2-4.5,4.5-4.5s4.5,2,4.5,4.5c0,1.1-0.4,2-1,2.8l5.3,5.3L22.7,25.4z" fill="#D3D3D3"/>
</g>
</svg>
