<?xml version="1.0" encoding="utf-8"?>
<!-- Generator: Adobe Illustrator 16.0.4, SVG Export Plug-In . SVG Version: 6.00 Build 0)  -->
<!DOCTYPE svg PUBLIC "-//W3C//DTD SVG 1.1//EN" "http://www.w3.org/Graphics/SVG/1.1/DTD/svg11.dtd">
<svg version="1.1" id="Layer_1" xmlns="http://www.w3.org/2000/svg" xmlns:xlink="http://www.w3.org/1999/xlink" x="0px" y="0px"
	 width="50px" height="50px" viewBox="0 0 50 50" enable-background="new 0 0 50 50" xml:space="preserve">
<path d="M20.894,28.041c0,2.264,1.841,4.104,4.103,4.104c2.265,0,4.104-1.84,4.104-4.104s-1.841-4.104-4.104-4.104
	C22.735,23.938,20.894,25.777,20.894,28.041z M24.997,24.938c1.712,0,3.104,1.393,3.104,3.104c0,1.712-1.394,3.104-3.104,3.104
	s-3.103-1.394-3.103-3.104C21.894,26.33,23.286,24.938,24.997,24.938z M24.497,30.124c0-0.276,0.224-0.5,0.5-0.5
	c0.872,0,1.582-0.71,1.582-1.583c0-0.275,0.225-0.5,0.5-0.5c0.276,0,0.5,0.225,0.5,0.5c0,1.424-1.158,2.583-2.582,2.583
	C24.721,30.624,24.497,30.4,24.497,30.124z M24.996,22.541c-5.945,0-10.664,4.947-10.862,5.157c-0.181,0.192-0.181,0.493,0,0.686
	c0.198,0.21,4.917,5.158,10.862,5.158c5.947,0,10.667-4.948,10.865-5.158c0.181-0.192,0.181-0.493,0-0.686
	C35.663,27.488,30.943,22.541,24.996,22.541z M24.996,32.542c-4.635,0-8.613-3.396-9.785-4.501c1.172-1.105,5.15-4.5,9.785-4.5
	c4.636,0,8.615,3.395,9.788,4.5C33.611,29.146,29.632,32.542,24.996,32.542z M38.914,22.812l-1.929,1.929
	c0.672,0.529,1.049,0.889,1.062,0.903c0.189,0.2,0.181,0.518-0.021,0.707c-0.097,0.09-0.22,0.135-0.343,0.135
	c-0.134,0-0.267-0.053-0.364-0.156c-0.05-0.053-5.433-5.205-12.403-5.205c-6.892,0-12.188,5.152-12.237,5.204
	c-0.188,0.2-0.504,0.212-0.707,0.021c-0.201-0.188-0.212-0.504-0.023-0.705c0.014-0.014,0.387-0.379,1.053-0.915l-1.918-1.918
	c-0.195-0.195-0.195-0.512,0-0.707s0.512-0.195,0.707,0l2.014,2.014c1.085-0.795,2.601-1.753,4.431-2.538l-1.423-2.547
	c-0.135-0.241-0.049-0.546,0.192-0.681c0.239-0.133,0.545-0.05,0.681,0.192l1.487,2.663c1.601-0.592,3.397-1.01,5.327-1.065v-3.185
	c0-0.276,0.224-0.5,0.5-0.5s0.5,0.224,0.5,0.5v3.192c1.914,0.075,3.705,0.501,5.306,1.096l1.509-2.702
	c0.135-0.242,0.438-0.326,0.681-0.192c0.241,0.135,0.327,0.439,0.192,0.681l-1.445,2.588c1.826,0.783,3.346,1.73,4.438,2.515
	l2.03-2.032c0.195-0.195,0.513-0.195,0.707,0C39.112,22.299,39.109,22.616,38.914,22.812z" fill="#C2C2C2"/>
</svg>
