<?xml version="1.0" encoding="utf-8"?>
<!-- Generator: Adobe Illustrator 16.0.0, SVG Export Plug-In . SVG Version: 6.00 Build 0)  -->
<!DOCTYPE svg PUBLIC "-//W3C//DTD SVG 1.1//EN" "http://www.w3.org/Graphics/SVG/1.1/DTD/svg11.dtd">
<svg version="1.1" id="Layer_2" xmlns="http://www.w3.org/2000/svg" xmlns:xlink="http://www.w3.org/1999/xlink" x="0px" y="0px"
	 width="126px" height="126px" viewBox="0 0 126 126" enable-background="new 0 0 126 126" xml:space="preserve">
<g>
	<circle cx="74.915" cy="40.67" r="7.853" fill="#FFFFFF"/>
	<path d="M117.956,70.507l-6.377-2.354c0.501-4.652,0.341-9.395-0.539-14.112l6.165-2.836c3.848-1.769,5.53-6.344,3.763-10.192
		l-3.598-7.802c-1.772-3.85-6.344-5.544-10.188-3.767l-6.17,2.844c-3.011-3.735-6.509-6.942-10.366-9.582L93,16.334
		c1.466-3.975-0.572-8.404-4.543-9.87l-8.07-2.981c-3.843-1.416-8.442,0.7-9.866,4.541l-2.349,6.382
		c-4.647-0.5-9.394-0.335-14.106,0.535l-2.837-6.155c-1.772-3.849-6.349-5.536-10.192-3.769l-7.81,3.598
		c-3.849,1.772-5.531,6.349-3.768,10.188l2.845,6.165c-3.729,3.019-6.939,6.514-9.582,10.375l-6.363-2.353
		c-3.848-1.428-8.452,0.686-9.876,4.54l-2.978,8.068c-0.709,1.928-0.629,4.013,0.231,5.874c0.865,1.864,2.393,3.283,4.311,3.982
		l6.384,2.364c-0.507,4.646-0.341,9.39,0.533,14.104l-6.159,2.84c-3.85,1.771-5.536,6.339-3.769,10.185l3.603,7.817
		c1.772,3.838,6.335,5.53,10.188,3.758l6.16-2.839c3.017,3.729,6.515,6.938,10.377,9.576l-2.354,6.374
		c-0.714,1.927-0.634,4.012,0.227,5.874c0.855,1.865,2.388,3.286,4.312,3.997l8.07,2.979c1.919,0.706,4.004,0.626,5.871-0.225
		c1.868-0.864,3.281-2.398,3.985-4.32l2.363-6.378c4.647,0.506,9.39,0.34,14.107-0.539l2.831,6.164
		c1.773,3.844,6.349,5.532,10.192,3.764l7.81-3.597c3.854-1.774,5.536-6.341,3.764-10.193L93.704,101
		c3.726-3.018,6.936-6.512,9.573-10.374l6.378,2.356c1.929,0.713,4.014,0.629,5.88-0.231c1.858-0.854,3.271-2.389,3.981-4.311
		l2.982-8.068C123.965,76.398,121.927,71.972,117.956,70.507z M79.739,99.311c-3.748,1.727-7.662,2.839-11.683,3.35
		c1.223-0.31,2.252-1.241,2.603-2.546L75.142,83.5c0.276-1.024,0.087-2.117-0.519-2.991l-4.712-6.801
		c0.22-0.361,0.407-0.755,0.548-1.193l3.903-12.22c1.153,0.742,2.479,1.332,3.948,1.734c1.385,0.377,2.803,0.563,4.185,0.563
		c3.118,0,6.069-0.936,8.126-2.681c1.282-1.088,1.441-3.012,0.352-4.297c-1.089-1.282-3.012-1.441-4.297-0.352
		c-1.433,1.217-4.214,1.58-6.758,0.884c-2.064-0.563-3.578-1.711-4.05-3.07c-0.043-0.123-0.094-0.24-0.151-0.354
		c-0.528-1.668-1.782-3.095-3.16-3.992c-0.318-0.279-0.697-0.499-1.127-0.629c-0.188-0.083-0.396-0.162-0.61-0.225
		c-0.808-0.239-1.76-0.338-1.76-0.338l-0.023-0.005c-0.394-0.027-0.799-0.021-1.21,0.011c-3.811-0.15-8.07,0.909-11.788,3.022
		c-4.298,2.443-7.245,5.925-8.301,9.808c-0.018,0.066-0.03,0.133-0.044,0.199c-0.315-0.093-0.671-0.025-0.927,0.216l-0.791,0.74
		l-3.209-3.423l-8.465,7.935l10.746,11.462l8.464-7.935l-3.21-3.423l0.791-0.741c0.348-0.327,0.395-0.853,0.134-1.234
		c1.117-0.206,2.077-1.026,2.395-2.197c0.616-2.269,2.596-4.495,5.43-6.105c0.614-0.348,1.248-0.657,1.895-0.928L56.73,68.13
		c-0.256,0.804-0.304,1.594-0.197,2.352l-2.961,7.903l-9.227,0.457c-1.987,0.101-3.519,1.791-3.419,3.777
		c0.095,1.928,1.688,3.425,3.595,3.425c0.061,0,0.121-0.001,0.182-0.004l11.59-0.577c1.436-0.07,2.691-0.988,3.195-2.334l2.59-6.909
		c0.31,0.084,0.625,0.151,0.943,0.199l4.727,6.82l-4.046,14.998c-0.519,1.921,0.619,3.898,2.541,4.417
		c0.291,0.079,0.584,0.116,0.873,0.122c-1.355,0.139-2.723,0.214-4.1,0.214c-15.568,0-29.837-9.141-36.344-23.271
		c-9.219-20.033-0.436-43.84,19.592-53.065c5.299-2.441,10.926-3.674,16.716-3.674c15.57,0,29.838,9.13,36.355,23.266
		C108.55,66.284,99.766,90.084,79.739,99.311z M50.545,64.821l-0.788,0.741l-3.235-3.449l0.79-0.742
		c0.063-0.059,0.164-0.055,0.224,0.009l0.115,0.122c0.132,1.211,0.983,2.276,2.229,2.613c0.09,0.025,0.182,0.04,0.271,0.056
		l0.058,0.061l0.345,0.368C50.613,64.663,50.611,64.764,50.545,64.821z" fill="#FFFFFF"/>
</g>
</svg>
