<?xml version="1.0" encoding="utf-8"?>
<!-- Generator: Adobe Illustrator 16.0.0, SVG Export Plug-In . SVG Version: 6.00 Build 0)  -->
<!DOCTYPE svg PUBLIC "-//W3C//DTD SVG 1.1//EN" "http://www.w3.org/Graphics/SVG/1.1/DTD/svg11.dtd">
<svg version="1.1" id="Layer_1" xmlns="http://www.w3.org/2000/svg" xmlns:xlink="http://www.w3.org/1999/xlink" x="0px" y="0px"
	 width="100px" height="100px" viewBox="0 0 100 100" enable-background="new 0 0 100 100" xml:space="preserve">
<g>
	<path d="M50,83.375l-0.76-0.887c-0.974-1.137-23.846-28.002-23.846-41.256c0-13.568,11.038-24.606,24.606-24.606
		s24.606,11.039,24.606,24.606c0,13.254-22.873,40.12-23.847,41.256L50,83.375z M50,18.625c-12.465,0-22.606,10.141-22.606,22.606
		c0,11.222,18.585,34.209,22.606,39.05c4.021-4.841,22.606-27.828,22.606-39.05C72.605,28.767,62.465,18.625,50,18.625z"/>
</g>
<g>
	<path d="M50,51.374c-5.592,0-10.142-4.55-10.142-10.143c0-5.592,4.55-10.142,10.142-10.142c5.593,0,10.143,4.55,10.143,10.142
		C60.143,46.824,55.593,51.374,50,51.374z M50,33.089c-4.49,0-8.142,3.652-8.142,8.142c0,4.49,3.652,8.143,8.142,8.143
		c4.49,0,8.143-3.652,8.143-8.143C58.143,36.742,54.49,33.089,50,33.089z"/>
</g>
</svg>
