<?xml version="1.0" encoding="utf-8"?>
<!-- Generator: Adobe Illustrator 16.0.0, SVG Export Plug-In . SVG Version: 6.00 Build 0)  -->
<!DOCTYPE svg PUBLIC "-//W3C//DTD SVG 1.1//EN" "http://www.w3.org/Graphics/SVG/1.1/DTD/svg11.dtd">
<svg version="1.1" id="Layer_9" xmlns="http://www.w3.org/2000/svg" xmlns:xlink="http://www.w3.org/1999/xlink" x="0px" y="0px"
	 width="100px" height="100px" viewBox="0 0 100 100" enable-background="new 0 0 100 100" xml:space="preserve">
<path d="M75.999,13.684H26.925c-3.186,0-5.777,2.592-5.777,5.778v4.571c-1.636,0.158-2.924,1.525-2.924,3.202
	c0,1.677,1.288,3.043,2.924,3.201v3.673c-1.636,0.159-2.924,1.525-2.924,3.202c0,1.677,1.288,3.043,2.924,3.201v3.914
	c-1.636,0.158-2.924,1.524-2.924,3.201s1.288,3.043,2.924,3.202v3.673c-1.636,0.158-2.924,1.525-2.924,3.202
	s1.288,3.043,2.924,3.202v3.624c-1.636,0.159-2.924,1.525-2.924,3.202s1.288,3.043,2.924,3.201v9.607
	c0,3.186,2.592,5.777,5.777,5.777h49.074c3.186,0,5.777-2.592,5.777-5.777V19.461C81.776,16.276,79.185,13.684,75.999,13.684z
	 M21.147,69.281c-0.725-0.144-1.273-0.784-1.273-1.551c0-0.767,0.548-1.407,1.273-1.551V69.281z M21.147,59.254
	c-0.725-0.144-1.273-0.784-1.273-1.55c0-0.767,0.548-1.407,1.273-1.551V59.254z M21.147,49.178
	c-0.725-0.145-1.273-0.785-1.273-1.551c0-0.767,0.548-1.407,1.273-1.551V49.178z M21.147,38.861
	c-0.725-0.144-1.273-0.784-1.273-1.55c0-0.767,0.548-1.407,1.273-1.551V38.861z M21.147,28.785
	c-0.725-0.145-1.273-0.784-1.273-1.551c0-0.767,0.548-1.407,1.273-1.551V28.785z M78.475,80.539c0,1.365-1.111,2.476-2.476,2.476
	H26.925c-1.365,0-2.476-1.111-2.476-2.476v-9.576h2.447c0.285,1.103,1.277,1.921,2.47,1.921c1.414,0,2.56-1.146,2.56-2.56
	c0-1.414-1.146-2.56-2.56-2.56c-1.054,0-1.958,0.638-2.35,1.548h-2.567v-8.376h2.447c0.285,1.103,1.277,1.921,2.47,1.921
	c1.414,0,2.56-1.146,2.56-2.56c0-1.414-1.146-2.56-2.56-2.56c-1.054,0-1.958,0.637-2.35,1.547h-2.567V50.86h2.522
	c0.359,0.979,1.292,1.681,2.395,1.681c1.414,0,2.56-1.146,2.56-2.56c0-1.414-1.146-2.56-2.56-2.56c-1.143,0-2.1,0.754-2.429,1.788
	h-2.488v-8.666h2.458c0.297,1.085,1.28,1.887,2.459,1.887c1.414,0,2.56-1.146,2.56-2.56c0-1.414-1.146-2.56-2.56-2.56
	c-1.067,0-1.98,0.654-2.364,1.582h-2.553v-8.426h2.387c0.147,1.273,1.217,2.266,2.53,2.266c1.414,0,2.56-1.146,2.56-2.56
	c0-1.414-1.146-2.56-2.56-2.56c-0.914,0-1.71,0.482-2.163,1.203h-2.754v-9.354c0-1.365,1.111-2.476,2.476-2.476h49.074
	c1.365,0,2.476,1.111,2.476,2.476V80.539z M72.234,28.541c0,0.684-0.554,1.238-1.238,1.238H38.532c-0.684,0-1.238-0.554-1.238-1.238
	s0.554-1.238,1.238-1.238h32.464C71.68,27.302,72.234,27.856,72.234,28.541z M68.245,38.583c0,0.684-0.554,1.238-1.238,1.238H42.521
	c-0.684,0-1.238-0.554-1.238-1.238s0.554-1.238,1.238-1.238h24.486C67.691,37.344,68.245,37.898,68.245,38.583z M68.245,48.762
	c0,0.684-0.554,1.238-1.238,1.238H42.521c-0.684,0-1.238-0.554-1.238-1.238c0-0.684,0.554-1.238,1.238-1.238h24.486
	C67.691,47.524,68.245,48.078,68.245,48.762z M68.245,58.667c0,0.684-0.554,1.238-1.238,1.238H42.521
	c-0.684,0-1.238-0.554-1.238-1.238s0.554-1.238,1.238-1.238h24.486C67.691,57.428,68.245,57.982,68.245,58.667z M68.245,69.19
	c0,0.684-0.554,1.238-1.238,1.238H42.521c-0.684,0-1.238-0.554-1.238-1.238s0.554-1.238,1.238-1.238h24.486
	C67.691,67.952,68.245,68.506,68.245,69.19z"/>
</svg>
