<?xml version="1.0" encoding="utf-8"?>
<!-- Generator: Adobe Illustrator 16.0.0, SVG Export Plug-In . SVG Version: 6.00 Build 0)  -->
<!DOCTYPE svg PUBLIC "-//W3C//DTD SVG 1.1//EN" "http://www.w3.org/Graphics/SVG/1.1/DTD/svg11.dtd">
<svg version="1.1" id="Layer_2" xmlns="http://www.w3.org/2000/svg" xmlns:xlink="http://www.w3.org/1999/xlink" x="0px" y="0px"
	 width="126px" height="126px" viewBox="0 0 126 126" enable-background="new 0 0 126 126" xml:space="preserve">
<g>
	<circle cx="62.724" cy="14.02" r="12.781" fill="#FFFFFF"/>
	<path d="M75.807,49.776c1.588,3.964,2.941,9.409,4.091,17.244c0.362,2.468,2.481,4.243,4.903,4.243c0.24,0,0.482-0.018,0.727-0.053
		c2.711-0.398,4.587-2.919,4.189-5.63c-2.969-20.237-7.461-28.903-18.492-35.669c-0.214-0.131-0.439-0.225-0.665-0.32
		c-1.423-0.949-3.022-1.648-4.651-2.048l-3.185,3.205l-3.087-3.241c-0.011,0.003-0.021,0.004-0.032,0.005
		c-2.362,0.565-4.657,1.764-6.452,3.444c-9.855,6.631-14.052,15.412-16.87,34.624c-0.398,2.711,1.478,5.231,4.189,5.63
		c0.245,0.035,0.487,0.053,0.727,0.053c2.421,0,4.542-1.775,4.903-4.243c1.014-6.911,2.187-11.961,3.539-15.777v15.625
		c0,1.336,0.259,2.58,0.713,3.726c-0.035,0.258-0.058,0.519-0.058,0.786l0.003,47.518c0,3.239,2.626,5.864,5.865,5.864
		s5.864-2.626,5.864-5.864l-0.003-40.78c0.232,0.01,0.464,0.028,0.698,0.028c0.046,0,0.091-0.005,0.137-0.006l-0.001,40.758
		c0,3.238,2.625,5.864,5.864,5.864l0,0c3.239,0,5.865-2.626,5.865-5.864l0.002-47.228c0.768-1.423,1.216-3.035,1.216-4.802V49.776z
		 M62.694,56.047l-3.083-4.219L62,35.867c0.238-0.642,0.34-1.324,0.301-2.013l0.394-2.632h0.06l3.082,20.605l-3.082,4.219H62.694z"
		 fill="#FFFFFF"/>
	<path d="M103.096,40.549c-6.638-3.6-14.614-6.195-23.306-7.656c2.087,2.011,3.869,4.255,5.408,6.839
		c4.383,1.987,8.194,4.535,11.191,7.511c-2.65-0.621-5.443-1.16-8.329-1.62c0.487,1.232,0.943,2.53,1.37,3.902
		c3.997,0.718,7.651,1.575,10.872,2.55c1.867,2.949,3.026,6.159,3.334,9.531H92.218c0.2,1.163,0.391,2.368,0.575,3.608h10.843
		c-0.308,3.372-1.467,6.582-3.334,9.532c-3.471,1.049-7.425,1.972-11.792,2.72c0.654-1.488,1.203-3.043,1.646-4.649
		c-1.166,1.025-2.6,1.697-4.171,1.928c-0.087,0.014-0.178,0.01-0.266,0.02c-0.449,1.164-0.958,2.291-1.535,3.367
		c-2.067,0.281-4.219,0.52-6.436,0.72l0,3.604c1.3-0.114,2.596-0.236,3.876-0.381c-1.162,1.504-2.462,2.863-3.876,4.06l0,8.109
		c9.484-1.383,18.195-4.093,25.348-7.973c11.089-6.013,17.196-14.132,17.196-22.86C120.292,54.681,114.185,46.562,103.096,40.549z
		 M116.266,61.605h-9.004c-0.211-2.711-0.895-5.33-1.993-7.819C111.22,56.131,115.064,58.875,116.266,61.605z M102.451,48.886
		c-2.396-3.355-5.59-6.369-9.409-8.904c9.246,3.302,16.444,8.081,20.36,13.69C110.475,51.827,106.748,50.229,102.451,48.886z
		 M86.424,81.454c3.473-0.51,6.815-1.138,9.965-1.877c-4.193,4.163-9.955,7.507-16.688,9.618
		C82.313,87.06,84.589,84.441,86.424,81.454z M93.042,86.838c3.819-2.535,7.013-5.549,9.409-8.904
		c4.297-1.343,8.024-2.941,10.951-4.785C109.486,78.757,102.288,83.536,93.042,86.838z M105.269,73.033
		c1.098-2.488,1.781-5.108,1.993-7.819h9.004C115.064,67.943,111.22,70.688,105.269,73.033z" fill="#FFFFFF"/>
	<path d="M44.376,82.074c0.912,0.104,1.84,0.184,2.763,0.271v-3.598c-1.825-0.178-3.603-0.383-5.323-0.617
		c-0.578-1.076-1.086-2.203-1.535-3.367c-0.09-0.011-0.18-0.007-0.27-0.021c-1.569-0.229-3.002-0.901-4.168-1.927
		c0.443,1.606,0.992,3.161,1.646,4.649c-4.367-0.748-8.321-1.671-11.792-2.72c-1.867-2.95-3.026-6.16-3.334-9.532h10.843
		c0.184-1.241,0.376-2.444,0.576-3.608H22.364c0.308-3.372,1.467-6.582,3.334-9.531c3.221-0.975,6.874-1.832,10.87-2.55
		c0.427-1.372,0.884-2.67,1.371-3.902c-2.886,0.46-5.678,0.999-8.328,1.62c2.999-2.977,6.81-5.524,11.194-7.512
		c1.54-2.585,3.326-4.828,5.415-6.84c-8.696,1.461-16.675,4.057-23.316,7.658C11.815,46.562,5.708,54.681,5.708,63.41
		c0,8.729,6.107,16.848,17.196,22.86c6.874,3.728,15.184,6.376,24.236,7.804l-0.001-8.935C46.151,84.2,45.227,83.175,44.376,82.074z
		 M32.958,39.981c-3.819,2.535-7.013,5.549-9.409,8.904c-4.297,1.343-8.024,2.941-10.951,4.786
		C16.514,48.063,23.712,43.283,32.958,39.981z M20.731,53.786c-1.098,2.489-1.781,5.108-1.993,7.819H9.734
		C10.936,58.875,14.78,56.131,20.731,53.786z M9.734,65.214h9.004c0.212,2.711,0.895,5.331,1.993,7.819
		C14.78,70.688,10.936,67.943,9.734,65.214z M12.598,73.148c2.927,1.844,6.654,3.442,10.951,4.785
		c2.396,3.355,5.59,6.369,9.409,8.904C23.712,83.536,16.514,78.757,12.598,73.148z M29.611,79.577
		c3.149,0.739,6.492,1.367,9.965,1.877c1.835,2.987,4.111,5.605,6.723,7.741C39.566,87.084,33.805,83.74,29.611,79.577z" fill="#FFFFFF"/>
</g>
</svg>
