<?xml version="1.0" encoding="iso-8859-1"?>
<!-- Generator: Adobe Illustrator 18.0.0, SVG Export Plug-In . SVG Version: 6.00 Build 0)  -->
<!DOCTYPE svg PUBLIC "-//W3C//DTD SVG 1.1//EN" "http://www.w3.org/Graphics/SVG/1.1/DTD/svg11.dtd">
<svg version="1.1" id="Capa_1" xmlns="http://www.w3.org/2000/svg" xmlns:xlink="http://www.w3.org/1999/xlink" x="0px" y="0px"
	 viewBox="0 0 32 32" style="enable-background:new 0 0 32 32;" xml:space="preserve">
<g id="_x31__1_">
	<g>
		<path style="fill-rule:evenodd;clip-rule:evenodd;" d="M22.027,9.068c-0.478-0.276-1.09-0.112-1.366,0.366l-6.395,11.077
			l-3.578-3.3c-0.378-0.403-1.01-0.424-1.413-0.046c-0.403,0.378-0.424,1.01-0.046,1.414l4.572,4.217
			c0.378,0.403,1.01,0.424,1.413,0.046c0.122-0.114,7.18-12.407,7.18-12.407C22.669,9.956,22.505,9.344,22.027,9.068z M16,0
			C7.163,0,0,7.163,0,16c0,8.837,7.163,16,16,16c8.837,0,16-7.163,16-16C32,7.163,24.837,0,16,0z M16,30C8.268,30,2,23.732,2,16
			C2,8.268,8.268,2,16,2c7.732,0,14,6.268,14,14C30,23.732,23.732,30,16,30z" fill="#ffffff"/>
	</g>
</g>
<g>
</g>
<g>
</g>
<g>
</g>
<g>
</g>
<g>
</g>
<g>
</g>
<g>
</g>
<g>
</g>
<g>
</g>
<g>
</g>
<g>
</g>
<g>
</g>
<g>
</g>
<g>
</g>
<g>
</g>
</svg>
