<?xml version="1.0" encoding="utf-8"?>
<!-- Generator: Adobe Illustrator 18.0.0, SVG Export Plug-In . SVG Version: 6.00 Build 0)  -->
<!DOCTYPE svg PUBLIC "-//W3C//DTD SVG 1.1//EN" "http://www.w3.org/Graphics/SVG/1.1/DTD/svg11.dtd">
<svg version="1.1" id="Capa_1" xmlns:sketch="http://www.bohemiancoding.com/sketch/ns"
	 xmlns="http://www.w3.org/2000/svg" xmlns:xlink="http://www.w3.org/1999/xlink" x="0px" y="0px" viewBox="0 0 32 32"
	 enable-background="new 0 0 32 32" xml:space="preserve">
<title>icon 26 thumb finger tap</title>
<desc>Created with Sketch.</desc>
<g>
	<path d="M11,6.5C11,4.6,12.6,3,14.5,3C16.4,3,18,4.6,18,6.5v2.8c0.6-0.8,1-1.8,1-2.8C19,4,17,2,14.5,2S10,4,10,6.5
		c0,1.1,0.4,2.1,1,2.8V6.5z" fill="#EE7621"/>
	<path d="M26.5,14c-0.6,0-1.1,0.2-1.5,0.5v0c0-1.4-1.1-2.5-2.5-2.5c-0.6,0-1.2,0.2-1.7,0.6c-0.4-1-1.3-1.6-2.3-1.6
		c-0.6,0-1.1,0.2-1.5,0.5v-5C17,5.1,15.9,4,14.5,4C13.1,4,12,5.1,12,6.5v8.9c-2-1.8-4.2-3.2-5.6-1.8c-2,2,2.2,5.9,5.4,11.8
		c2.3,4.1,5.5,5.6,8.7,5.6c4.7,0,8.5-3.8,8.5-8.5v-6C29,15.1,27.9,14,26.5,14z M28,18.7v3.8c0,3.9-3.4,7.5-7.5,7.5
		c-3.8,0-6-2.1-7.8-5C8.8,18.4,6,15.4,7.1,14.3c1.1-1.1,3.8,1.3,5.9,3.5V6.5C13,5.7,13.7,5,14.5,5C15.3,5,16,5.7,16,6.5V17h1v-3.5
		c0-0.8,0.7-1.5,1.5-1.5c0.8,0,1.5,0.7,1.5,1.5V16h1v-1.5c0-0.8,0.7-1.5,1.5-1.5c0.8,0,1.5,0.7,1.5,1.5V17h1v-0.5
		c0-0.8,0.7-1.5,1.5-1.5c0.8,0,1.5,0.7,1.5,1.5V18.7z" fill="#EE7621"/>
	<path d="M4,14.5C4,12.6,5.6,11,7.5,11c1.4,0,2.6,0.8,3.2,2c0.1,0.1,0.2,0.1,0.3,0.2v-1.6c-0.8-1-2.1-1.7-3.5-1.7C5,10,3,12,3,14.5
		c0,2.1,1.4,3.8,3.3,4.3c-0.2-0.5-0.5-0.9-0.6-1.4C4.7,16.9,4,15.8,4,14.5z" fill="#EE7621"/>
</g>
</svg>
