<?xml version="1.0" encoding="utf-8"?>
<!-- Generator: Adobe Illustrator 16.0.0, SVG Export Plug-In . SVG Version: 6.00 Build 0)  -->
<!DOCTYPE svg PUBLIC "-//W3C//DTD SVG 1.1//EN" "http://www.w3.org/Graphics/SVG/1.1/DTD/svg11.dtd">
<svg version="1.1" id="Layer_1" xmlns="http://www.w3.org/2000/svg" xmlns:xlink="http://www.w3.org/1999/xlink" x="0px" y="0px"
	 width="100px" height="100px" viewBox="0 0 100 100" enable-background="new 0 0 100 100" xml:space="preserve">
<g>
	<path d="M81,50c0-17.093-13.906-31-31-31c-17.093,0-31,13.907-31,31c0,9.216,4.047,17.501,10.452,23.184l-7.815,7.815l1.414,1.414
		l7.866-7.865l-0.713-0.714C35.577,78.306,42.479,81,50,81c7.518,0,14.416-2.691,19.789-7.158l-0.706,0.706l6.435,6.435l1.414-1.414
		l-6.384-6.384C76.953,67.501,81,59.217,81,50z M21,50c0-15.991,13.009-29,29-29c15.99,0,29,13.009,29,29c0,15.99-13.01,29-29,29
		C34.009,79,21,65.99,21,50z"/>
	<polygon points="51,47.586 51,28.757 49,28.757 49,52.414 59.523,41.891 58.109,40.477 	"/>
	<path d="M33.483,15.93c-2.267-2.267-5.28-3.515-8.485-3.515s-6.219,1.248-8.485,3.515s-3.515,5.28-3.515,8.485
		c0,3.205,1.248,6.219,3.515,8.485l0.707,0.707l16.971-16.97L33.483,15.93z M17.254,30.744c-1.462-1.782-2.256-3.994-2.256-6.329
		c0-2.671,1.04-5.183,2.929-7.071s4.4-2.929,7.071-2.929c2.335,0,4.548,0.794,6.33,2.256L17.254,30.744z"/>
	<path d="M83.488,15.93c-2.267-2.267-5.28-3.516-8.485-3.516s-6.219,1.249-8.484,3.516l-0.707,0.707l16.97,16.971l0.707-0.708
		c2.267-2.267,3.515-5.281,3.515-8.486C87.003,21.209,85.755,18.196,83.488,15.93z M82.746,30.744L68.674,16.671
		c1.782-1.462,3.994-2.257,6.329-2.257c2.671,0,5.183,1.041,7.071,2.93c1.889,1.889,2.929,4.399,2.929,7.071
		C85.003,26.75,84.208,28.962,82.746,30.744z"/>
</g>
</svg>
