<?xml version="1.0" encoding="utf-8"?>
<!-- Generator: Adobe Illustrator 16.0.0, SVG Export Plug-In . SVG Version: 6.00 Build 0)  -->
<!DOCTYPE svg PUBLIC "-//W3C//DTD SVG 1.1//EN" "http://www.w3.org/Graphics/SVG/1.1/DTD/svg11.dtd">
<svg version="1.1" id="Layer_1" xmlns="http://www.w3.org/2000/svg" xmlns:xlink="http://www.w3.org/1999/xlink" x="0px" y="0px"
	 width="100px" height="100px" viewBox="0 0 100 100" enable-background="new 0 0 100 100" xml:space="preserve">
<path d="M73.649,49.813c0-13.055-10.622-23.677-23.677-23.677c-13.056,0-23.677,10.622-23.677,23.677
	c0,5.838,2.102,11.344,5.94,15.674l-0.061,0.021l1.14,1.128l0.443,0.438l0.016-0.006c4.407,4.143,10.131,6.422,16.199,6.422
	c6.028,0,11.717-2.268,16.114-6.366l0.032,0.011l0.443-0.435l1.149-1.129l-0.061-0.021C71.526,61.212,73.649,55.684,73.649,49.813z
	 M28.295,49.813c0-11.953,9.725-21.677,21.677-21.677s21.677,9.724,21.677,21.677c0,5.654-2.145,10.963-6.055,15.023l-9.307-3.238
	v-3.475c2.107-1.167,3.435-3.389,3.435-5.832V39.63c0-3.678-2.992-6.669-6.669-6.669h-6.161c-3.678,0-6.669,2.991-6.669,6.669
	v12.662c0,2.443,1.329,4.666,3.436,5.832v3.391l-9.37,3.26C30.418,60.724,28.295,55.435,28.295,49.813z M49.972,71.491
	c-5.201,0-10.129-1.824-14.048-5.169l9.842-3.423l-0.067-0.775c-0.006-0.074-0.016-0.146-0.025-0.219
	c-0.007-0.05-0.017-0.1-0.017-0.15v-4.912l-0.605-0.26c-1.719-0.737-2.83-2.422-2.83-4.291V39.63c0-2.252,1.604-4.138,3.729-4.573
	c0.304-0.063,0.618-0.096,0.94-0.096h6.161c0.322,0,0.636,0.032,0.94,0.096c2.126,0.436,3.729,2.321,3.729,4.573v12.662
	c0,1.869-1.111,3.553-2.83,4.291l-0.605,0.26v4.912c0,0.078-0.013,0.153-0.023,0.229l-0.107,0.992l9.792,3.405
	C60.04,69.688,55.137,71.491,49.972,71.491z" fill="#EE7621"/>
</svg>
