<?xml version="1.0" encoding="utf-8"?>
<!-- Generator: Adobe Illustrator 16.0.4, SVG Export Plug-In . SVG Version: 6.00 Build 0)  -->
<!DOCTYPE svg PUBLIC "-//W3C//DTD SVG 1.1//EN" "http://www.w3.org/Graphics/SVG/1.1/DTD/svg11.dtd">
<svg version="1.1" id="Layer_1" xmlns="http://www.w3.org/2000/svg" xmlns:xlink="http://www.w3.org/1999/xlink" x="0px" y="0px"
	 width="100px" height="100px" viewBox="0 0 100 100" enable-background="new 0 0 100 100" xml:space="preserve">
<g>
	<path d="M43.62,61.645c-0.391-0.391-1.023-0.391-1.414,0l-13.98,13.981c-0.391,0.391-0.391,1.023,0,1.414
		c0.195,0.195,0.451,0.293,0.707,0.293s0.512-0.098,0.707-0.293l13.98-13.981C44.011,62.668,44.011,62.035,43.62,61.645z"/>
	<path d="M40.791,58.816c-0.391-0.391-1.023-0.391-1.414,0l-13.98,13.98c-0.391,0.391-0.391,1.023,0,1.414
		c0.195,0.195,0.451,0.293,0.707,0.293s0.512-0.098,0.707-0.293l13.98-13.98C41.182,59.84,41.182,59.207,40.791,58.816z"/>
	<path d="M44.681,64.121L30.7,78.102c-0.391,0.391-0.391,1.023,0,1.414c0.195,0.195,0.451,0.293,0.707,0.293
		s0.512-0.098,0.707-0.293l13.981-13.98c0.391-0.391,0.391-1.023,0-1.414S45.072,63.73,44.681,64.121z"/>
	<path d="M81.45,26.997l-3.536-3.536c-0.357-0.356-0.924-0.391-1.321-0.083l-5.688,4.425c-0.295,0.186-0.547,0.385-0.77,0.608
		c-1.511,1.511-1.712,3.834-0.621,5.571L52.033,51.464l-4.596-4.596c-0.375-0.375-1.039-0.375-1.414,0l-3.028,3.028
		c-0.391,0.391-0.391,1.023,0,1.414c0.779,0.779,0.779,2.048,0,2.827c-0.758,0.756-2.074,0.755-2.829,0
		c-0.188-0.188-0.442-0.293-0.708-0.293c-0.265,0-0.52,0.105-0.707,0.293L22.745,70.146c-1.605,1.605-2.49,3.739-2.49,6.01
		s0.884,4.405,2.49,6.01c1.606,1.605,3.741,2.489,6.011,2.489s4.404-0.884,6.009-2.489l16.008-16.007
		c0.188-0.188,0.292-0.441,0.292-0.707s-0.104-0.52-0.292-0.707c-0.78-0.779-0.78-2.049,0-2.829c0.753-0.756,2.071-0.758,2.828,0
		c0.391,0.391,1.023,0.391,1.414,0l3.027-3.027c0.391-0.391,0.391-1.023,0-1.414l-4.596-4.597L70.93,35.396
		c0.71,0.448,1.528,0.696,2.388,0.696c1.201,0,2.332-0.468,3.176-1.312c0.225-0.221,0.426-0.475,0.615-0.774l4.424-5.688
		C81.842,27.92,81.807,27.354,81.45,26.997z M54.22,59.884c-1.506-0.893-3.592-0.65-4.861,0.618
		c-1.315,1.316-1.521,3.327-0.617,4.86l-15.391,15.39c-1.227,1.228-2.858,1.903-4.594,1.903c-1.736,0-3.369-0.676-4.597-1.903
		s-1.904-2.859-1.904-4.596c0-1.735,0.676-3.368,1.904-4.596l15.388-15.39c1.505,0.892,3.591,0.65,4.862-0.619
		c1.315-1.314,1.521-3.325,0.618-4.858l1.703-1.704l9.192,9.192L54.22,59.884z M75.498,32.819c-0.022,0.028-0.043,0.058-0.062,0.089
		c-0.111,0.181-0.225,0.327-0.351,0.451c-0.945,0.944-2.59,0.944-3.535,0c-0.974-0.975-0.974-2.56,0-3.535
		c0.124-0.124,0.271-0.238,0.454-0.35c0.03-0.019,0.061-0.04,0.089-0.062l5.031-3.914l2.288,2.288L75.498,32.819z"/>
</g>
</svg>
