<?xml version="1.0" encoding="utf-8"?>
<!-- Generator: Adobe Illustrator 16.0.0, SVG Export Plug-In . SVG Version: 6.00 Build 0)  -->
<!DOCTYPE svg PUBLIC "-//W3C//DTD SVG 1.1//EN" "http://www.w3.org/Graphics/SVG/1.1/DTD/svg11.dtd">
<svg version="1.1" id="Layer_1" xmlns="http://www.w3.org/2000/svg" xmlns:xlink="http://www.w3.org/1999/xlink" x="0px" y="0px"
	 width="100px" height="100px" viewBox="0 0 100 100" enable-background="new 0 0 100 100" xml:space="preserve">
<g>
	<path d="M51.509,22.486c-12.314,0-22.332,10.02-22.332,22.334c0,11.854,20.262,39.548,21.124,40.721l0.806,1.096
		c0.094,0.129,0.244,0.204,0.402,0.204c0.16,0,0.309-0.075,0.403-0.204l0.806-1.096c0.862-1.173,21.125-28.867,21.125-40.721
		C73.843,32.505,63.823,22.486,51.509,22.486z M51.509,25.486c10.66,0,19.334,8.674,19.334,19.334
		c0,9.361-15.279,31.541-19.334,37.262c-4.055-5.721-19.332-27.897-19.332-37.262C32.177,34.16,40.849,25.486,51.509,25.486z" fill="#EE7621"/>
	<g>
		<path d="M51.509,53.32c-4.687,0-8.5-3.813-8.5-8.5c0-4.688,3.813-8.5,8.5-8.5c4.688,0,8.5,3.813,8.5,8.5
			C60.009,49.506,56.196,53.32,51.509,53.32z M51.509,38.32c-3.584,0-6.5,2.916-6.5,6.5s2.916,6.5,6.5,6.5s6.5-2.916,6.5-6.5
			S55.093,38.32,51.509,38.32z" fill="#EE7621"/>
	</g>
</g>
</svg>
