<?xml version="1.0" encoding="utf-8"?>
<!-- Generator: Adobe Illustrator 16.0.0, SVG Export Plug-In . SVG Version: 6.00 Build 0)  -->
<!DOCTYPE svg PUBLIC "-//W3C//DTD SVG 1.1//EN" "http://www.w3.org/Graphics/SVG/1.1/DTD/svg11.dtd">
<svg version="1.1" id="Layer_3" xmlns="http://www.w3.org/2000/svg" xmlns:xlink="http://www.w3.org/1999/xlink" x="0px" y="0px"
	 width="126px" height="126px" viewBox="0 0 126 126" enable-background="new 0 0 126 126" xml:space="preserve">
<g>
	<path d="M93.084,91.206c-0.632,2.983-1.019,5.079-1.159,6.287c-0.12-0.936-0.36-2.352-0.72-4.245
		c-0.358-1.895-0.712-3.566-1.061-5.015l-2.041-9.031h-5.978l-2.107,9.031c-0.315,1.253-0.656,2.831-1.02,4.736
		c-0.366,1.905-0.618,3.413-0.761,4.523c-0.218-1.567-0.62-3.675-1.208-6.319l-2.597-11.972h-5.896h-0.326h-5.896l-2.646,12.004
		c-0.632,2.983-1.019,5.079-1.159,6.287c-0.12-0.936-0.36-2.352-0.719-4.245c-0.359-1.895-0.713-3.566-1.062-5.015l-2.041-9.031
		h-5.978l-2.107,9.031c-0.315,1.253-0.655,2.831-1.02,4.736c-0.365,1.905-0.618,3.413-0.761,4.523
		c-0.218-1.567-0.619-3.675-1.208-6.319L41.02,79.202h-5.897h-0.325h-5.897l-2.646,12.004c-0.632,2.983-1.018,5.079-1.159,6.287
		c-0.119-0.936-0.359-2.352-0.719-4.245c-0.358-1.895-0.713-3.566-1.062-5.015l-2.041-9.031h-5.978l-2.106,9.031
		c-0.316,1.253-0.656,2.831-1.021,4.736c-0.365,1.905-0.618,3.413-0.761,4.523c-0.218-1.567-0.619-3.675-1.208-6.319L7.604,79.202
		H1.382l5.912,23.877h7.627c1.393-6.261,2.186-9.831,2.376-10.714c0.19-0.882,0.384-1.847,0.58-2.898
		c0.195-1.051,0.337-1.93,0.424-2.638c0.108,0.871,0.28,1.954,0.515,3.25s0.406,2.161,0.514,2.597l2.286,10.403h7.628L34.96,79.86
		l5.749,23.219h7.627c1.393-6.261,2.185-9.831,2.376-10.714c0.189-0.882,0.384-1.847,0.58-2.898c0.195-1.051,0.337-1.93,0.424-2.638
		c0.108,0.871,0.28,1.954,0.515,3.25c0.233,1.296,0.405,2.161,0.514,2.597l2.287,10.403h7.626l5.718-23.218l5.748,23.218h7.627
		c1.394-6.261,2.186-9.831,2.376-10.714c0.19-0.882,0.385-1.847,0.58-2.898c0.196-1.051,0.337-1.93,0.425-2.638
		c0.108,0.871,0.279,1.954,0.515,3.25c0.233,1.296,0.405,2.161,0.514,2.597l2.286,10.403h7.627l5.879-23.877h-6.223L93.084,91.206z"
		 fill="#EE7621"/>
	<circle cx="94.51" cy="32.179" r="9.258" fill="#EE7621"/>
	<path d="M123.572,47.096c-0.844-0.325-1.788,0.095-2.112,0.937l-6.459,16.721h-3.259c0.472-0.62,0.734-1.403,0.665-2.241
		c-0.149-1.8-1.739-3.138-3.527-2.986c-5.114,0.424-5.864-0.667-6.269-1.254c-2.111-1.709-1.681-9.166-1.681-9.166
		c-0.001-3.793-3.33-6.337-6.423-7.095c0,0-0.975-0.292-2.012-0.27c-0.992,0.022-2.099,0.253-2.099,0.253l-0.026,0.004
		c-3.115,0.763-6.432,3.301-6.432,7.107l0.001,20.437c0,4.44,4.41,7.188,8.495,7.188c0.229,0.001,0.458-0.02,0.688-0.036
		l11.392-0.009l2.432,20.983c0.251,2.165,2.088,3.76,4.215,3.76c0.163,0,0.328-0.01,0.494-0.028c2.33-0.271,4.001-2.379,3.73-4.709
		l-2.868-24.745c-0.248-2.143-2.063-3.759-4.22-3.759c-0.002,0-0.002,0-0.004,0l-7.363,0.006v-3.109
		c0.807,0.355,1.721,0.624,2.752,0.802c-0.052,0.159-0.087,0.326-0.087,0.502c0,0.902,0.731,1.634,1.634,1.634h10.893
		c0.675,0,1.28-0.415,1.523-1.045l6.862-17.767C124.832,48.367,124.414,47.421,123.572,47.096z" fill="#EE7621"/>
</g>
</svg>
