<?xml version="1.0" encoding="utf-8"?>
<!-- Generator: Adobe Illustrator 16.0.0, SVG Export Plug-In . SVG Version: 6.00 Build 0)  -->
<!DOCTYPE svg PUBLIC "-//W3C//DTD SVG 1.1//EN" "http://www.w3.org/Graphics/SVG/1.1/DTD/svg11.dtd">
<svg version="1.1" id="Layer_2" xmlns="http://www.w3.org/2000/svg" xmlns:xlink="http://www.w3.org/1999/xlink" x="0px" y="0px"
	 width="126px" height="126px" viewBox="0 0 126 126" enable-background="new 0 0 126 126" xml:space="preserve">
<g>
	<circle cx="33.411" cy="14.714" r="13.244" fill="#FFFFFF"/>
	<circle cx="77.184" cy="14.718" r="13.244" fill="#FFFFFF"/>
	<path d="M85.513,107.959l0.005,9.567c0.002,3.871,3.141,7.006,7.012,7.006h0.004c3.871-0.002,7.009-3.144,7.007-7.015l-0.005-9.559
		H85.513z" fill="#FFFFFF"/>
	<path d="M108.878,76.801c-0.436-2.573-2.327-4.641-4.786-5.372c0.027-0.425,0.019-0.854-0.066-1.292
		c-0.656-3.351-8.698-34.91-8.698-34.91c-1.141-5.323-4.825-7.881-9.411-8.014l-0.039,0.002c0,0-1.616,0.009-3.01,0.274
		c-1.458,0.278-2.735,0.979-2.735,0.979c-3.38,1.64-6.613,5.027-7.009,9.141c-0.053,0.198-0.118,0.39-0.148,0.599
		c-0.892,6.283-1.786,10.265-3.711,12.019c-1.985,1.806-6.444,2.612-14.459,2.612c-1.855,0-3.466,0.991-4.371,2.466
		c-4.836-0.987-7.69-2.239-9.197-3.984c-1.958-2.262-2.671-6.464-3.616-13.114c-0.029-0.209-0.095-0.403-0.147-0.6
		c-0.396-4.112-3.629-7.502-7.011-9.141c0,0-1.277-0.701-2.733-0.98c-1.395-0.266-3.011-0.273-3.011-0.273l-0.039-0.003
		c-4.586,0.133-9.985,2.688-11.127,8.015L7.428,63.809c-0.816,3.818,0.891,7.234,3.652,9.592l-0.027,44.113
		c-0.002,3.873,3.136,7.014,7.008,7.017c0,0,0.003,0,0.004,0c3.87,0,7.009-3.138,7.011-7.009l0.025-41.74
		c2.897-1.152,5.346-3.39,6.094-6.88l2.319-10.822c3.689,4.307,9.781,6.777,20.644,8.263c0.236,0.032,0.471,0.05,0.704,0.05
		c2.167,0,4.088-1.379,4.818-3.394c8.504-0.449,13.78-2.2,17.209-5.808l2.51,11.716c0.651,3.032,2.588,5.117,4.987,6.369h3.336
		c0.717-2.021,2.168-3.688,4.079-4.682c-1.741-8.297-4.155-16.455-6.231-21.414c-1.415-2.603,0.561-3.5,1.614-0.799
		c1.053,2.703,4.991,15.014,6.603,23.064c-2.43,0.748-4.292,2.802-4.723,5.355h-9.901v29.252h39.613V76.801H108.878z M92.604,76.801
		c0.407-1.129,1.388-1.982,2.594-2.191c0.957,1.032,2.313,1.662,3.769,1.662c0.326,0,0.659-0.033,0.992-0.099
		c1.114-0.218,2.064-0.79,2.781-1.566c1.207,0.21,2.189,1.065,2.597,2.194H92.604z" fill="#FFFFFF"/>
</g>
</svg>
