<?xml version="1.0" encoding="utf-8"?>
<!-- Generator: Adobe Illustrator 16.0.0, SVG Export Plug-In . SVG Version: 6.00 Build 0)  -->
<!DOCTYPE svg PUBLIC "-//W3C//DTD SVG 1.1//EN" "http://www.w3.org/Graphics/SVG/1.1/DTD/svg11.dtd">
<svg version="1.1" id="Layer_1" xmlns="http://www.w3.org/2000/svg" xmlns:xlink="http://www.w3.org/1999/xlink" x="0px" y="0px"
	 width="126px" height="126px" viewBox="0 0 126 126" enable-background="new 0 0 126 126" xml:space="preserve">
<g>
	<path d="M47.343,79.801c-0.546-0.424-4.877-3.7-16.893-4.497c-0.661-0.055-1.327-0.524-1.914-0.917
		c-0.747-0.497-1.523-1.019-2.089-1.692c-0.92-1.098-1.959-2.022-2.832-3.241c-5.842-8.144-11.567-9.779-12.423-10.102
		c-1.14-0.55-5.507,0.127-3.409,3.039c0.133,0.022,6.68,9.219,7.105,9.954c0.752,1.298,1.603,1.829,2.402,2.74
		c0.73,0.832,1.538,1.597,2.284,2.415c0,0-4.187-2.479-5.19-3.565c-0.447-0.487-0.662-1.184-1.018-1.762
		c-0.412-0.666-0.85-1.315-1.297-1.957c-0.56-0.801-1.123-1.6-1.717-2.375c-0.758-0.987-1.545-1.953-2.326-2.923
		c-0.486-0.604-1.035-1.187-1.436-1.818c-1.98-3.128,0.281-4.999,2.433-5.235c-0.104-0.36-1.094-9.819-1.267-11.407
		c-0.494-4.56-0.982-7.938-3.596-8.857c-0.674-0.238-1.15-0.158-1.652,0.372c-0.594,0.624-0.948,3.936-1.119,6.03
		c0,0-1.143,11.236-0.868,16.479c0.147,2.812,8.882,22.156,11.392,25.145c2.508,2.988,22.139,14.304,22.139,14.304
		c0.656,0.546,4.291,3.345,4.291,7.015v7.967l21.164,0.025l0.018-7.311c0.049-1.351,0.279-2.695,0.441-4.041
		c0.461-1.537,0.092-4.442-0.123-5.57C57.385,87.046,48.332,80.566,47.343,79.801z" fill="#FF9900"/>
	<path d="M124.61,44.002c-0.172-2.095-0.525-5.406-1.119-6.03c-0.502-0.53-0.979-0.61-1.653-0.372
		c-2.612,0.92-3.102,4.298-3.595,8.857c-0.174,1.588-1.163,11.047-1.268,11.407c2.152,0.236,4.414,2.107,2.433,5.235
		c-0.4,0.632-0.948,1.214-1.435,1.818c-0.781,0.97-1.569,1.936-2.327,2.923c-0.594,0.775-1.157,1.574-1.716,2.375
		c-0.447,0.642-0.886,1.291-1.297,1.957c-0.355,0.578-0.57,1.274-1.019,1.762c-1.004,1.087-5.19,3.565-5.19,3.565
		c0.746-0.818,1.555-1.583,2.285-2.415c0.799-0.911,1.649-1.442,2.401-2.74c0.427-0.735,6.974-9.932,7.106-9.954
		c2.098-2.912-2.27-3.589-3.41-3.039c-0.855,0.322-6.58,1.958-12.422,10.102c-0.873,1.219-1.913,2.144-2.832,3.241
		c-0.566,0.674-1.343,1.195-2.09,1.692c-0.587,0.393-1.253,0.862-1.914,0.917c-12.016,0.797-16.346,4.073-16.893,4.497
		c-0.989,0.766-10.041,7.245-12.5,18.214c-0.216,1.128-0.584,4.033-0.123,5.57c0.162,1.346,0.393,2.69,0.441,4.041l0.018,7.311
		l21.164-0.025v-7.967c0-3.67,3.635-6.469,4.291-7.015c0,0,19.63-11.315,22.139-14.304s11.243-22.333,11.391-25.145
		C125.753,55.238,124.61,44.002,124.61,44.002z" fill="#FF9900"/>
	<path d="M75.755,68.995c10.04-9.444,22.504-21.171,24.216-31.607c1.202-7.38,0.027-13.463-3.492-18.081
		c-3.552-4.662-8.956-7.323-16.523-8.136c-0.729-0.073-1.393-0.107-2.053-0.107c-5.352,0-10.756,1.994-14.903,5.361
		c-4.146-3.367-9.551-5.361-14.902-5.361c-0.66,0-1.323,0.034-2.053,0.107c-7.567,0.813-12.972,3.474-16.523,8.136
		c-3.52,4.618-4.694,10.701-3.492,18.081c1.712,10.437,14.176,22.163,24.216,31.607c0,0,5.008,5.026,6.513,6.316
		c1.131,0.971,3.585,2.928,6.242,2.928c2.658,0,5.112-1.957,6.243-2.928C70.747,74.021,75.755,68.995,75.755,68.995z M50.252,23.515
		c-6.396,0-11.601,4.629-11.601,10.319c0,1.727-1.399,3.126-3.127,3.126c-1.727,0-3.125-1.399-3.125-3.126
		c0-9.138,8.008-16.571,17.853-16.571c1.727,0,3.126,1.399,3.126,3.126S51.979,23.515,50.252,23.515z" fill="#FF9900"/>
</g>
</svg>
