<?xml version="1.0" encoding="iso-8859-1"?>
<!-- Generator: Adobe Illustrator 17.1.0, SVG Export Plug-In . SVG Version: 6.00 Build 0)  -->
<!DOCTYPE svg PUBLIC "-//W3C//DTD SVG 1.1//EN" "http://www.w3.org/Graphics/SVG/1.1/DTD/svg11.dtd">
<svg version="1.1" id="Capa_1" xmlns="http://www.w3.org/2000/svg" xmlns:xlink="http://www.w3.org/1999/xlink" x="0px" y="0px"
	 viewBox="0 0 200 200" style="enable-background:new 0 0 200 200;" xml:space="preserve">
<g>
	<path d="M37.584,169.354l23.836-9.587c1.541-0.62,3.259,0.14,3.836,1.698l8.929,24.091c0.577,1.558,1.59,1.589,2.263,0.07
		L100,132.42l23.552,53.206c0.672,1.519,1.686,1.488,2.263-0.07l8.929-24.091c0.577-1.558,2.295-2.318,3.836-1.698l23.836,9.587
		c1.541,0.62,2.246-0.109,1.573-1.628l-22.995-51.947c-10.81,9.604-24.995,15.481-40.532,15.596
		c-0.155,0.001-0.307,0.012-0.462,0.012s-0.307-0.011-0.462-0.012c-15.537-0.115-29.722-5.992-40.532-15.596l-22.995,51.947
		C35.338,169.245,36.043,169.974,37.584,169.354z" fill="#FF9900"/>
	<path d="M61.128,110.984c9.55,8.971,22.196,14.681,36.171,15.336c0.895,0.042,1.795,0.068,2.7,0.068s1.805-0.026,2.7-0.068
		c13.975-0.654,26.621-6.365,36.171-15.336c11.03-10.361,17.93-25.07,17.93-41.398c0-31.371-25.431-56.802-56.802-56.802
		S43.198,38.215,43.198,69.586C43.198,85.914,50.098,100.622,61.128,110.984z M100,23.068c25.65,0,46.518,20.868,46.518,46.518
		c0,12.035-4.595,23.018-12.122,31.285c-6.919,7.6-16.318,12.898-26.902,14.62c-2.441,0.397-4.942,0.612-7.493,0.612
		s-5.052-0.215-7.493-0.612c-10.584-1.722-19.983-7.02-26.902-14.62c-7.527-8.268-12.122-19.25-12.122-31.285
		C53.482,43.936,74.35,23.068,100,23.068z" fill="#FF9900"/>
	<path d="M90.027,109.889c3.196,0.788,6.534,1.214,9.973,1.214s6.778-0.426,9.973-1.214c8.859-2.185,16.597-7.209,22.192-14.057
		c5.844-7.153,9.353-16.289,9.353-26.246c0-22.93-18.588-41.518-41.518-41.518S58.482,46.656,58.482,69.586
		c0,9.957,3.509,19.093,9.353,26.246C73.43,102.681,81.168,107.704,90.027,109.889z M87.547,45.799l13.06-6.992
		c0.146-0.078,0.308-0.119,0.472-0.119h6.902c0.552,0,1,0.448,1,1v47.49v7.951v4.355c0,0.552-0.448,1-1,1h-7.82
		c-0.552,0-1-0.448-1-1v-7.959v-0.743V48.811l-9.105,4.914c-0.272,0.147-0.596,0.16-0.877,0.036
		c-0.282-0.124-0.491-0.371-0.567-0.67l-1.562-6.165C86.937,46.48,87.142,46.016,87.547,45.799z" fill="#FF9900"/>
</g>
</svg>
