<?xml version="1.0" encoding="iso-8859-1"?>
<!-- Generator: Adobe Illustrator 16.0.0, SVG Export Plug-In . SVG Version: 6.00 Build 0)  -->
<!DOCTYPE svg PUBLIC "-//W3C//DTD SVG 1.1//EN" "http://www.w3.org/Graphics/SVG/1.1/DTD/svg11.dtd">
<svg version="1.1" id="Layer_1" xmlns="http://www.w3.org/2000/svg" xmlns:xlink="http://www.w3.org/1999/xlink" x="0px" y="0px"
	 width="32px" height="31.831px" viewBox="0 0 32 31.831" style="enable-background:new 0 0 32 31.831;" xml:space="preserve">
<path d="M31.41,16.648c0.786-0.402,0.786-1.063,0-1.47c-0.782-0.403-0.864-1.191-0.183-1.749c0.683-0.558,0.545-1.206-0.305-1.438
	c-0.852-0.233-1.096-0.987-0.544-1.675c0.552-0.688,0.282-1.291-0.598-1.343c-0.881-0.05-1.277-0.734-0.879-1.522
	c0.394-0.79,0.008-1.324-0.864-1.19c-0.874,0.134-1.403-0.454-1.179-1.309c0.225-0.852-0.267-1.295-1.092-0.984
	c-0.824,0.313-1.467-0.152-1.425-1.034c0.043-0.881-0.53-1.212-1.272-0.734c-0.743,0.477-1.465,0.155-1.609-0.717
	c-0.142-0.871-0.77-1.074-1.396-0.454c-0.628,0.622-1.402,0.456-1.722-0.365c-0.32-0.823-0.977-0.891-1.461-0.155
	c-0.485,0.739-1.277,0.739-1.762,0c-0.482-0.736-1.141-0.667-1.461,0.155c-0.319,0.821-1.094,0.986-1.72,0.365
	c-0.628-0.62-1.256-0.417-1.398,0.454c-0.143,0.872-0.866,1.194-1.608,0.717C8.188,1.723,7.616,2.054,7.657,2.935
	c0.042,0.882-0.598,1.347-1.423,1.034C5.408,3.657,4.916,4.101,5.14,4.953c0.226,0.854-0.305,1.442-1.176,1.309
	c-0.873-0.134-1.262,0.4-0.864,1.19C3.496,8.24,3.101,8.924,2.22,8.974c-0.882,0.052-1.151,0.655-0.599,1.343
	c0.551,0.688,0.308,1.441-0.542,1.675c-0.853,0.231-0.99,0.88-0.306,1.438c0.683,0.558,0.601,1.346-0.184,1.749
	c-0.785,0.406-0.785,1.067,0,1.47c0.784,0.406,0.867,1.193,0.184,1.752c-0.684,0.559-0.547,1.206,0.306,1.438
	c0.85,0.231,1.094,0.985,0.542,1.674C1.069,22.2,1.338,22.804,2.22,22.856c0.88,0.049,1.275,0.734,0.879,1.524
	c-0.397,0.786-0.009,1.321,0.864,1.187c0.871-0.132,1.402,0.456,1.176,1.309c-0.224,0.854,0.268,1.296,1.094,0.984
	c0.825-0.313,1.465,0.153,1.423,1.035c-0.042,0.88,0.531,1.21,1.273,0.733c0.742-0.476,1.465-0.154,1.608,0.717
	c0.143,0.869,0.771,1.075,1.398,0.453c0.626-0.62,1.401-0.455,1.72,0.367c0.32,0.823,0.979,0.891,1.461,0.154
	c0.485-0.738,1.277-0.738,1.762,0c0.484,0.736,1.141,0.669,1.461-0.154c0.32-0.822,1.094-0.987,1.722-0.367
	c0.627,0.622,1.255,0.416,1.396-0.453c0.144-0.871,0.866-1.192,1.609-0.717c0.743,0.477,1.315,0.146,1.272-0.733
	c-0.042-0.882,0.601-1.348,1.425-1.035c0.825,0.312,1.316-0.13,1.092-0.984c-0.224-0.853,0.305-1.44,1.179-1.309
	c0.872,0.135,1.258-0.4,0.864-1.187c-0.398-0.79-0.002-1.476,0.879-1.524c0.88-0.052,1.15-0.656,0.598-1.345
	c-0.552-0.688-0.308-1.442,0.544-1.674c0.85-0.231,0.988-0.879,0.305-1.438C30.546,17.841,30.628,17.054,31.41,16.648z
	 M16.055,29.042c-3.899,0-7.393-1.729-9.767-4.449c0.298-0.023,0.633-0.045,0.917-0.045c0.282,0,0.566-0.018,0.839-0.034
	c0.24-0.016,0.471-0.027,0.683-0.027h0.099c0.2,0.041,0.402,0.063,0.613,0.087c0.188,0.02,0.382,0.039,0.586,0.079
	c0.229,0.045,0.465,0.268,0.694,0.483c0.132,0.125,0.263,0.246,0.391,0.338c0.131,0.093,0.258,0.185,0.388,0.279
	c0.397,0.289,0.809,0.589,1.276,0.797c0.576,0.248,1.211,0.33,1.828,0.409c0.299,0.038,0.596,0.075,0.881,0.134
	c0.186,0.021,0.346,0.039,0.507,0.057c0.483,0.055,0.982,0.112,1.481,0.112c0.337,0,0.635-0.026,0.909-0.081
	c0.985-0.28,1.611-1.079,1.612-1.996c0.501-0.199,0.948-0.617,1.231-1.152c0.252-0.479,0.337-0.991,0.246-1.443
	c0.951-0.623,1.441-1.79,1.178-2.791c0.419-0.288,0.709-0.771,0.81-1.36c0.14-0.816-0.111-1.683-0.64-2.208
	c-0.701-0.667-1.667-0.828-2.522-0.97c-0.134-0.022-0.266-0.046-0.396-0.068c-0.096-0.026-0.219-0.055-0.343-0.082
	c-1.138-0.266-1.943-0.523-1.944-1.455c-0.003-0.614,0.2-1.181,0.413-1.784c0.245-0.689,0.498-1.403,0.458-2.235
	c-0.077-1.481-0.706-2.771-1.683-3.45c-0.39-0.312-0.904-0.496-1.392-0.496c-0.727,0-1.269,0.395-1.49,1.083
	c-0.155,0.465-0.129,0.914-0.102,1.392c0.006,0.118,0.014,0.239,0.018,0.364c0.027,0.657-0.051,1.199-0.243,1.713
	c-0.364,1.026-1.094,1.982-1.689,2.702l-0.327,0.409c-0.456,0.574-0.926,1.17-1.462,1.647c-0.263,0.208-0.543,0.282-0.903,0.36
	c-0.101,0.005-0.189,0.033-0.264,0.054c-0.047,0.018-0.1,0.033-0.128,0.033c-0.354-0.026-0.731-0.054-1.12-0.054
	c-0.535,0-3.09,0.025-4.546,0.04C3.543,8.691,9.173,3.321,16.055,3.321c7.136,0,12.942,5.769,12.942,12.859
	C28.997,23.271,23.19,29.042,16.055,29.042z M15.152,8.065l-0.006-0.112c-0.028-0.45-0.036-0.936,0.219-0.972
	c0.018-0.001,0.039-0.003,0.06-0.003c0.414,0,0.934,0.519,1.242,1c0.323,0.612,0.491,1.255,0.475,1.834
	c-0.017,0.603-0.213,1.174-0.422,1.779c-0.245,0.712-0.5,1.451-0.44,2.257c0.083,1.096,0.953,2.043,2.165,2.356
	c0.354,0.093,0.728,0.153,1.09,0.212c0.676,0.109,1.374,0.225,1.944,0.543c0.372,0.188,0.768,0.579,0.698,1.095
	c-0.033,0.281-0.161,0.627-0.587,0.705c-0.23,0.065-0.384,0.199-0.458,0.389c-0.089,0.227-0.056,0.511,0.091,0.755
	c0.154,0.184,0.178,0.565,0.087,0.899c-0.125,0.397-0.414,0.677-0.863,0.83c-0.191,0.023-0.362,0.155-0.455,0.357
	c-0.106,0.229-0.083,0.479,0.064,0.651c0.126,0.182,0.102,0.59-0.073,0.929c-0.139,0.265-0.336,0.426-0.528,0.426
	c-0.026,0-0.053-0.002-0.081-0.01l-0.03-0.006H19.31c-0.235,0-0.541,0.104-0.693,0.338c-0.1,0.153-0.114,0.343-0.038,0.514
	c0.094,0.253,0.083,0.54-0.033,0.732c-0.085,0.139-0.219,0.223-0.401,0.245c-0.322,0.086-0.643,0.086-0.954,0.086
	c-0.923-0.083-1.905-0.172-2.852-0.343l-0.452-0.102c-0.234-0.054-0.467-0.104-0.673-0.157c-0.339-0.166-0.719-0.452-1.084-0.73
	c-0.122-0.092-0.241-0.182-0.359-0.267c-0.085-0.067-0.178-0.156-0.272-0.244c-0.242-0.228-0.512-0.482-0.849-0.575
	c-0.317-0.195-0.654-0.195-0.929-0.195c-0.882-0.082-1.3-0.401-1.515-1.176C7.995,21.328,7.988,20.438,8,19.667l0.002-0.174
	c0.007-0.728,0.019-1.635,0.392-2.296c0.186-0.315,0.555-0.383,0.983-0.463c0.591-0.097,1.058-0.291,1.493-0.626
	c0.062-0.021,0.126-0.067,0.172-0.154c0.177-0.12,0.322-0.298,0.455-0.457c0.7-0.762,1.345-1.555,1.851-2.284
	c0.119-0.177,0.237-0.345,0.354-0.511c0.539-0.771,1.097-1.566,1.334-2.549C15.206,9.432,15.189,8.807,15.152,8.065z" fill="#FF9900"/>
<g>
</g>
<g>
</g>
<g>
</g>
<g>
</g>
<g>
</g>
<g>
</g>
<g>
</g>
<g>
</g>
<g>
</g>
<g>
</g>
<g>
</g>
<g>
</g>
<g>
</g>
<g>
</g>
<g>
</g>
</svg>
