<?xml version="1.0" encoding="utf-8"?>
<!-- Generator: Adobe Illustrator 16.0.0, SVG Export Plug-In . SVG Version: 6.00 Build 0)  -->
<!DOCTYPE svg PUBLIC "-//W3C//DTD SVG 1.1//EN" "http://www.w3.org/Graphics/SVG/1.1/DTD/svg11.dtd">
<svg version="1.1" id="Layer_1" xmlns="http://www.w3.org/2000/svg" xmlns:xlink="http://www.w3.org/1999/xlink" x="0px" y="0px"
	 width="100px" height="100px" viewBox="0 0 100 100" enable-background="new 0 0 100 100" xml:space="preserve">
<g>
	<path d="M73.314,67.968c-0.372,0-0.722-0.208-0.894-0.552c-0.058-0.112-4.642-8.612-23.772-8.901v8.453
		c0,0.381-0.217,0.729-0.558,0.897c-0.341,0.167-0.747,0.128-1.051-0.103L26.078,51.699c-0.247-0.189-0.393-0.482-0.393-0.793
		c0-0.312,0.146-0.605,0.393-0.795L47.04,34.048c0.304-0.232,0.71-0.271,1.051-0.104s0.558,0.516,0.558,0.896v8.908
		c0.506-0.032,1.165-0.06,1.943-0.06c7.133,0,23.723,2.269,23.723,23.278c0,0.465-0.32,0.869-0.772,0.975
		C73.467,67.96,73.391,67.968,73.314,67.968z" fill="#fff"/>
</g>
</svg>
