<?xml version="1.0" encoding="utf-8"?>
<!-- Generator: Adobe Illustrator 16.0.4, SVG Export Plug-In . SVG Version: 6.00 Build 0)  -->
<!DOCTYPE svg PUBLIC "-//W3C//DTD SVG 1.1//EN" "http://www.w3.org/Graphics/SVG/1.1/DTD/svg11.dtd">
<svg version="1.1" id="Capa_1" xmlns="http://www.w3.org/2000/svg" xmlns:xlink="http://www.w3.org/1999/xlink" x="0px" y="0px"
	 width="26.062px" height="17.861px" viewBox="0 0 26.062 17.861" enable-background="new 0 0 26.062 17.861" xml:space="preserve">
<path d="M24.869,1.948l-0.737-0.746C23.364,0.433,22.339,0,21.246,0s-2.117,0.424-2.887,1.192l-5.328,5.328L7.703,1.193
	C6.934,0.424,5.909,0,4.816,0S2.698,0.424,1.93,1.194L1.193,1.931c-1.592,1.592-1.592,4.182,0,5.773l8.835,8.903
	c0.765,0.765,1.789,1.254,2.884,1.254c0.04,0,0.079,0,0.119,0s0.079,0,0.119,0c1.096,0,2.121-0.489,2.885-1.256l8.834-8.868
	C26.461,6.146,26.461,3.54,24.869,1.948z M23.455,6.289l-8.836,8.835c-0.403,0.403-0.937,0.6-1.469,0.6
	c-0.04,0-0.079-0.001-0.119-0.003c-0.04,0.002-0.079,0.003-0.119,0.003c-0.532,0-1.064-0.195-1.47-0.6L2.607,6.29
	c-0.811-0.811-0.811-2.137,0-2.945l0.736-0.737C3.749,2.202,4.283,2,4.816,2C5.35,2,5.884,2.202,6.289,2.607l6.742,6.742
	l6.742-6.742C20.178,2.202,20.712,2,21.246,2c0.533,0,1.067,0.202,1.472,0.606l0.737,0.737C24.265,4.154,24.265,5.48,23.455,6.289z"
	 fill="#FF9900"/>
</svg>
