<?xml version="1.0" encoding="utf-8"?>
<!-- Generator: Adobe Illustrator 15.0.0, SVG Export Plug-In . SVG Version: 6.00 Build 0)  -->
<!DOCTYPE svg PUBLIC "-//W3C//DTD SVG 1.1//EN" "http://www.w3.org/Graphics/SVG/1.1/DTD/svg11.dtd">
<svg version="1.1" id="Layer_1" xmlns="http://www.w3.org/2000/svg" xmlns:xlink="http://www.w3.org/1999/xlink" x="0px" y="0px"
	 width="64px" height="64px" viewBox="0 0 64 64" enable-background="new 0 0 64 64" xml:space="preserve">
<g>
	<g>
		<polygon points="34.054,47.081 34.054,11.072 29.949,11.072 29.949,47.081 19.745,36.877 16.843,39.781 32,54.938 47.156,39.781 
			44.259,36.877 		" fill="#FF9900"/>
	</g>
	<g>
		<path d="M32,3.083C16.055,3.083,3.084,16.056,3.084,32c0,15.944,12.971,28.916,28.916,28.916
			c15.944,0,28.916-12.972,28.916-28.916C60.916,16.056,47.944,3.083,32,3.083z M32,57.003C18.213,57.003,6.998,45.787,6.998,32
			S18.213,6.997,32,6.997c13.786,0,25.002,11.217,25.002,25.003S45.786,57.003,32,57.003z" fill="#FF9900"/>
	</g>
</g>
</svg>
