<?xml version="1.0" encoding="utf-8"?>
<!-- Generator: Adobe Illustrator 15.0.0, SVG Export Plug-In . SVG Version: 6.00 Build 0)  -->
<!DOCTYPE svg PUBLIC "-//W3C//DTD SVG 1.1//EN" "http://www.w3.org/Graphics/SVG/1.1/DTD/svg11.dtd">
<svg version="1.1" id="Layer_1" xmlns="http://www.w3.org/2000/svg" xmlns:xlink="http://www.w3.org/1999/xlink" x="0px" y="0px"
	 width="64px" height="64px" viewBox="0 0 64 64" enable-background="new 0 0 64 64" xml:space="preserve">
<g>
	<g>
		<polygon points="17.061,24.33 19.919,27.195 29.977,17.137 29.977,52.626 34.022,52.626 34.022,17.138 44.077,27.194 
			46.939,24.331 31.999,9.393 		" fill="#FF9900"/>
	</g>
	<g>
		<path d="M31.999,3.501C16.285,3.501,3.5,16.285,3.5,32s12.785,28.499,28.499,28.499C47.715,60.499,60.5,47.715,60.5,32
			S47.715,3.501,31.999,3.501z M31.999,56.642C18.411,56.642,7.357,45.588,7.357,32S18.411,7.358,31.999,7.358
			c13.589,0,24.644,11.054,24.644,24.642S45.588,56.642,31.999,56.642z" fill="#FF9900"/>
	</g>
</g>
</svg>
