<?xml version="1.0" encoding="utf-8"?>
<!-- Generator: Adobe Illustrator 16.0.4, SVG Export Plug-In . SVG Version: 6.00 Build 0)  -->
<!DOCTYPE svg PUBLIC "-//W3C//DTD SVG 1.1//EN" "http://www.w3.org/Graphics/SVG/1.1/DTD/svg11.dtd">
<svg version="1.1" id="Capa_1" xmlns="http://www.w3.org/2000/svg" xmlns:xlink="http://www.w3.org/1999/xlink" x="0px" y="0px"
	 width="26.062px" height="17.861px" viewBox="0 0 26.062 17.861" enable-background="new 0 0 26.062 17.861" xml:space="preserve">
<path d="M24.869,10.159L16.226,1.29c-0.765-0.767-1.691-1.223-2.691-1.223V0c0,0-0.465,0-0.504,0c-0.04,0-0.079,0-0.119,0
	c-1.096,0-2.121,0.49-2.885,1.256l-8.834,8.868c-1.592,1.592-1.592,4.197,0,5.79L1.93,16.66c0.768,0.77,1.793,1.197,2.886,1.197
	s2.117-0.422,2.887-1.19l5.328-5.327l5.328,5.328c0.77,0.77,1.794,1.193,2.887,1.193s2.118-0.424,2.887-1.193l0.736-0.736
	C26.461,14.34,26.461,11.75,24.869,10.159z M23.455,14.518l-0.737,0.737c-0.403,0.405-0.938,0.606-1.472,0.606
	s-1.067-0.201-1.473-0.606l-6.742-6.742l-6.742,6.742c-0.404,0.405-0.938,0.606-1.473,0.606c-0.533,0-1.067-0.201-1.473-0.606
	l-0.736-0.737c-0.811-0.81-0.811-2.136,0-2.944l8.836-8.836c0.403-0.403,0.937-0.6,1.469-0.6c0.04,0,0.079,0.001,0.119,0.003
	c0.04-0.002,0.079-0.003,0.119-0.003c0.532,0,1.064,0.195,1.47,0.6l8.835,8.836C24.265,12.383,24.265,13.709,23.455,14.518z" fill="#FF9900"/>
</svg>
