<?xml version="1.0" encoding="iso-8859-1"?>
<!-- Generator: Adobe Illustrator 17.0.0, SVG Export Plug-In . SVG Version: 6.00 Build 0)  -->
<!DOCTYPE svg PUBLIC "-//W3C//DTD SVG 1.1//EN" "http://www.w3.org/Graphics/SVG/1.1/DTD/svg11.dtd">
<svg version="1.1" id="Capa_1" xmlns="http://www.w3.org/2000/svg" xmlns:xlink="http://www.w3.org/1999/xlink" x="0px" y="0px"
	 width="64px" height="64px" viewBox="0 0 64 64" style="enable-background:new 0 0 64 64;" xml:space="preserve">
<g>
	<path d="M41.203,35.722l4.752,2.249c0.677,0.32,1.214,0.841,1.567,1.484c2.828-2.856,5.889-7.345,8.457-12.733
		C60.92,16.357,62.16,6.645,58.748,5.03c-3.412-1.615-10.183,5.479-15.124,15.844c-2.567,5.386-4.125,10.584-4.56,14.572
		c0.207-0.038,0.417-0.065,0.631-0.065C40.22,35.382,40.727,35.496,41.203,35.722z" fill="#FF6600"/>
	<path d="M36.975,44.598l4.752,2.249c0.349,0.165,0.717,0.243,1.08,0.243c0.827,0,1.605-0.426,2.083-1.136
		c-2.83-1.962-5.916-3.449-9.177-4.529C35.246,42.643,35.776,44.031,36.975,44.598z" fill="#FF6600"/>
	<path d="M37.614,37.516c0.448,0.148,0.889,0.309,1.329,0.475c2.302,0.867,4.496,1.969,6.632,3.196
		c0.421,0.242,0.841,0.486,1.258,0.737c0.19-0.584,0.159-1.193-0.064-1.733c-0.23-0.558-0.653-1.038-1.242-1.317l-4.752-2.249
		c-0.349-0.165-0.717-0.244-1.08-0.244c-0.249,0-0.493,0.041-0.729,0.112C38.419,36.659,37.947,37.021,37.614,37.516z" fill="#FF6600"/>
	<path d="M36.237,40.281c1.242,0.418,2.459,0.892,3.648,1.426c0.743,0.334,1.479,0.684,2.199,1.066c1.167,0.62,2.3,1.309,3.399,2.06
		l0.836-1.754c-0.631-0.381-1.268-0.749-1.909-1.11c-1.731-0.975-3.503-1.866-5.347-2.597c-0.672-0.266-1.355-0.505-2.047-0.726
		L36.237,40.281z" fill="#FF6600"/>
	<path d="M11.339,37.089c7.217-4.681-1.15-11.938-4.044-15.721c-1.158-1.514-3.766-0.023-2.59,1.514
		c2.681,3.505,10.242,8.883,3.364,12.666c-2.035,1.119-3.382,3.158-1.904,5.326c1.498,2.197,5.658,2.393,7.989,2.735
		c1.627,0.239,3.332,0.718,4.89,1.34c-0.632,0.284-1.305,0.509-1.951,0.75c-3.255,1.214-10.51,4.108-7.946,9.021
		c2.094,4.013,7.936,3.936,12.495,4.021c-0.055-0.092-0.1-0.197-0.131-0.318c-0.248-0.973,0.552-1.524,2.487-2.592
		c-2.925-0.257-5.858-0.178-8.764-0.694c-5.846-1.037-2.094-4.644,1.197-5.988c1.735-0.708,8.42-2.235,6.153-5.441
		c-1.366-1.933-5.02-2.39-7.061-2.905c-1.404-0.355-2.906-0.448-4.328-0.75C7.836,39.339,9.232,38.456,11.339,37.089z" fill="#FF6600"/>
	<path d="M25.355,56.229c-2.183,1.191-4,2.154-2.048,2.154c0.531,0,1.344-0.072,2.5-0.229c1.572-0.214,3.781-0.585,6.807-1.154
		c16.712-3.14,4.026-11.359,4.026-11.359c-0.85-0.331-1.662-0.479-2.42-0.479c-4.14,0-6.646,4.415-4.647,7.5
		C30.163,53.574,27.571,55.019,25.355,56.229z" fill="#FF6600"/>
</g>
</svg>
