<?xml version="1.0" encoding="utf-8"?>
<!-- Generator: Adobe Illustrator 16.0.4, SVG Export Plug-In . SVG Version: 6.00 Build 0)  -->
<!DOCTYPE svg PUBLIC "-//W3C//DTD SVG 1.1//EN" "http://www.w3.org/Graphics/SVG/1.1/DTD/svg11.dtd">
<svg version="1.1" id="Layer_1" xmlns="http://www.w3.org/2000/svg" xmlns:xlink="http://www.w3.org/1999/xlink" x="0px" y="0px"
	 width="50px" height="50px" viewBox="0 0 50 50" enable-background="new 0 0 50 50" xml:space="preserve">
<g>
	<circle cx="25" cy="25" r="3.694" fill="#C0C0C0"/>
	<path d="M39.814,24.532c-0.271-0.286-6.707-7.033-14.816-7.033c-8.108,0-14.543,6.747-14.813,7.033
		c-0.246,0.263-0.246,0.673,0,0.935c0.271,0.286,6.706,7.036,14.813,7.036c8.109,0,14.547-6.75,14.816-7.036
		C40.062,25.205,40.062,24.793,39.814,24.532z M25,30.711c-3.148,0-5.709-2.562-5.709-5.712c0-3.148,2.561-5.711,5.709-5.711
		s5.712,2.562,5.712,5.711C30.711,28.148,28.148,30.711,25,30.711z M20.473,19.608c-1.543,1.298-2.546,3.22-2.546,5.391
		c0,2.17,1.003,4.092,2.546,5.392c-4.269-1.373-7.621-4.261-8.819-5.392C12.852,23.869,16.205,20.98,20.473,19.608z M29.529,30.389
		c1.542-1.299,2.546-3.221,2.546-5.39c0-2.169-1.003-4.09-2.547-5.389c4.268,1.373,7.618,4.258,8.817,5.389
		C37.146,26.129,33.796,29.015,29.529,30.389z" fill="#C0C0C0"/>
</g>
</svg>
