<?xml version="1.0" encoding="utf-8"?>
<!-- Generator: Adobe Illustrator 16.0.4, SVG Export Plug-In . SVG Version: 6.00 Build 0)  -->
<!DOCTYPE svg PUBLIC "-//W3C//DTD SVG 1.1//EN" "http://www.w3.org/Graphics/SVG/1.1/DTD/svg11.dtd">
<svg version="1.1" id="Capa_1" xmlns="http://www.w3.org/2000/svg" xmlns:xlink="http://www.w3.org/1999/xlink" x="0px" y="0px"
	 width="16px" height="16px" viewBox="0 0 16 16" enable-background="new 0 0 16 16" xml:space="preserve">
<g>
	<path d="M8.5,1C4.358,1,1,4.358,1,8.5C1,12.643,4.358,16,8.5,16c4.143,0,7.5-3.357,7.5-7.5C16,4.358,12.643,1,8.5,1z M8.5,15
		C4.916,15,2,12.084,2,8.5S4.916,2,8.5,2S15,4.916,15,8.5S12.084,15,8.5,15z"/>
	<path d="M9.395,4.811c-0.196-0.196-0.516-0.196-0.711,0c-0.197,0.196-0.197,0.515,0,0.711l2.649,2.996l-2.649,2.996
		c-0.197,0.196-0.197,0.516,0,0.711c0.195,0.196,0.515,0.196,0.711,0l2.959-3.345c0.1-0.101,0.147-0.231,0.146-0.362
		c0.001-0.13-0.046-0.262-0.146-0.361L9.395,4.811z"/>
	<path d="M8.913,8.518c0.002-0.13-0.046-0.263-0.146-0.361L5.808,4.811c-0.196-0.196-0.515-0.196-0.711,0
		c-0.196,0.196-0.196,0.515,0,0.711l2.65,2.996l-2.65,2.996c-0.196,0.196-0.196,0.516,0,0.711c0.196,0.196,0.515,0.196,0.711,0
		L8.768,8.88C8.867,8.781,8.915,8.65,8.913,8.518z"/>
</g>
</svg>
