<?xml version="1.0" encoding="utf-8"?>
<!-- Generator: Adobe Illustrator 16.0.0, SVG Export Plug-In . SVG Version: 6.00 Build 0)  -->
<!DOCTYPE svg PUBLIC "-//W3C//DTD SVG 1.1//EN" "http://www.w3.org/Graphics/SVG/1.1/DTD/svg11.dtd">
<svg version="1.1" id="Layer_1_copy_2" xmlns="http://www.w3.org/2000/svg" xmlns:xlink="http://www.w3.org/1999/xlink" x="0px"
	 y="0px" width="126px" height="126px" viewBox="0 0 126 126" enable-background="new 0 0 126 126" xml:space="preserve">
<path stroke="#6D6E70" stroke-width="0" stroke-linecap="round" stroke-linejoin="round" d="M87.319,74.245l-48.637-0.068
	c-0.001,0-0.002,0-0.002,0c-0.479,0-0.926,0.273-1.191,0.729c-0.268,0.455-0.316,1.033-0.133,1.54
	C41.491,87.819,51.585,95.17,63.071,95.17c11.244,0,21.279-7.315,25.563-18.636c0.191-0.506,0.148-1.089-0.117-1.55
	S87.802,74.245,87.319,74.245z M51.858,89.766c-2.64-1.154-5.017-2.712-7.012-4.615h7.012V89.766z M51.858,81.851h-9.785V76.9
	l9.785,0.011V81.851z M65.202,91.96c-0.727,0.057-1.459,0.095-2.199,0.095c-2.637,0-5.186-0.36-7.586-1.024v-5.88h9.785V91.96z
	 M65.202,81.851h-9.785v-4.935l9.785,0.011V81.851z M78.546,87.167c-2.836,2.045-6.17,3.52-9.785,4.283v-6.299h9.785V87.167z
	 M85.742,78.602c-0.533,1.144-1.177,2.225-1.899,3.249h-1.738v-4.904l2.469,0.002c0.429,0.001,0.828,0.202,1.064,0.534
	C85.874,77.816,85.913,78.236,85.742,78.602z M43.211,48.641c0-3.423,2.777-6.201,6.2-6.201c3.424,0,6.2,2.777,6.2,6.201
	c0,3.426-2.776,6.203-6.2,6.203C45.988,54.844,43.211,52.067,43.211,48.641z M71.327,48.641c0-3.423,2.781-6.201,6.203-6.201
	c3.424,0,6.201,2.777,6.201,6.201c0,3.426-2.777,6.203-6.201,6.203C74.108,54.844,71.327,52.067,71.327,48.641z M96.617,114.848
	H29.383c-10.053,0-18.23-8.178-18.23-18.23V29.382c0-10.052,8.178-18.23,18.23-18.23h67.234c10.053,0,18.23,8.178,18.23,18.23
	v67.235C114.848,106.67,106.67,114.848,96.617,114.848z M29.383,19.731c-5.322,0-9.652,4.33-9.652,9.651v67.235
	c0,5.321,4.33,9.651,9.652,9.651h67.234c5.322,0,9.652-4.33,9.652-9.651V29.382c0-5.321-4.33-9.651-9.652-9.651H29.383z" fill="#FF9900"/>
</svg>
