<?xml version="1.0" encoding="utf-8"?>
<!-- Generator: Adobe Illustrator 16.0.4, SVG Export Plug-In . SVG Version: 6.00 Build 0)  -->
<!DOCTYPE svg PUBLIC "-//W3C//DTD SVG 1.1//EN" "http://www.w3.org/Graphics/SVG/1.1/DTD/svg11.dtd">
<svg version="1.1" id="Capa_1" xmlns="http://www.w3.org/2000/svg" xmlns:xlink="http://www.w3.org/1999/xlink" x="0px" y="0px"
	 width="16px" height="16px" viewBox="0 0 16 16" enable-background="new 0 0 16 16" xml:space="preserve">
<g>
	<path d="M10.979,8.182l-2.997,2.65l-2.996-2.65c-0.196-0.196-0.515-0.196-0.711,0c-0.196,0.196-0.196,0.515,0,0.71l3.345,2.959
		c0.1,0.101,0.231,0.148,0.362,0.146C8.113,12,8.244,11.953,8.344,11.854l3.346-2.959c0.195-0.196,0.195-0.516,0-0.711
		C11.493,7.987,11.174,7.986,10.979,8.182z" fill="#666"/>
	<path d="M7.619,8.266c0.1,0.1,0.231,0.148,0.362,0.146c0.131,0.002,0.263-0.046,0.362-0.146l3.345-2.959
		c0.199-0.196,0.199-0.514,0.002-0.711c-0.196-0.196-0.516-0.196-0.711,0l-2.997,2.65l-2.996-2.65C4.789,4.4,4.47,4.4,4.274,4.596
		c-0.196,0.196-0.196,0.515,0,0.711L7.619,8.266z" fill="#666"/>
</g>
</svg>
