<?xml version="1.0" encoding="utf-8"?>
<!-- Generator: Adobe Illustrator 16.0.0, SVG Export Plug-In . SVG Version: 6.00 Build 0)  -->
<!DOCTYPE svg PUBLIC "-//W3C//DTD SVG 1.1//EN" "http://www.w3.org/Graphics/SVG/1.1/DTD/svg11.dtd">
<svg version="1.1" id="Layer_7" xmlns="http://www.w3.org/2000/svg" xmlns:xlink="http://www.w3.org/1999/xlink" x="0px" y="0px"
	 width="100px" height="100px" viewBox="0 0 100 100" enable-background="new 0 0 100 100" xml:space="preserve">
<path d="M50,9.775C27.82,9.775,9.775,27.82,9.775,50S27.82,90.225,50,90.225S90.225,72.18,90.225,50S72.18,9.775,50,9.775z
	 M50,86.225c-19.975,0-36.225-16.25-36.225-36.225S30.025,13.775,50,13.775S86.225,30.025,86.225,50S69.975,86.225,50,86.225z
	 M36.995,44.169c-3.502,0-6.342-2.84-6.342-6.343s2.84-6.343,6.342-6.343c3.504,0,6.344,2.84,6.344,6.343
	S40.499,44.169,36.995,44.169z M56.661,37.826c0-3.503,2.84-6.343,6.342-6.343c3.504,0,6.344,2.84,6.344,6.343
	s-2.84,6.343-6.344,6.343C59.501,44.169,56.661,41.329,56.661,37.826z M64.588,68.688l-2.74,1.221
	c-2.067-4.644-6.684-7.644-11.759-7.644c-5.234,0-9.906,3.13-11.902,7.973l-2.773-1.143c2.46-5.972,8.221-9.83,14.676-9.83
	C56.348,59.266,62.039,62.965,64.588,68.688z M72.235,51.813c0-2.033-3.219-6.419-3.586-6.913l-0.401-0.539L67.847,44.9
	c-0.367,0.494-3.586,4.88-3.586,6.913c0,2.198,1.789,3.987,3.987,3.987S72.235,54.012,72.235,51.813z M65.261,51.813
	c0-1.269,1.89-4.208,2.987-5.761c1.098,1.553,2.987,4.491,2.987,5.761c0,1.647-1.34,2.987-2.987,2.987S65.261,53.461,65.261,51.813z
	 M70.152,55.67l-0.401,0.539c-0.334,0.45-2.003,2.752-2.003,3.91c0,1.326,1.078,2.404,2.404,2.404s2.404-1.078,2.404-2.404
	c0-1.158-1.669-3.46-2.003-3.91L70.152,55.67z M70.152,61.523c-0.774,0-1.404-0.63-1.404-1.404c0-0.507,0.729-1.761,1.404-2.749
	c0.676,0.988,1.404,2.242,1.404,2.749C71.557,60.894,70.927,61.523,70.152,61.523z" fill="#FF9900"/>
</svg>
