<?xml version="1.0" encoding="iso-8859-1"?>
<!-- Generator: Adobe Illustrator 18.0.0, SVG Export Plug-In . SVG Version: 6.00 Build 0)  -->
<!DOCTYPE svg PUBLIC "-//W3C//DTD SVG 1.1//EN" "http://www.w3.org/Graphics/SVG/1.1/DTD/svg11.dtd">
<svg version="1.1" id="Capa_1" xmlns="http://www.w3.org/2000/svg" xmlns:xlink="http://www.w3.org/1999/xlink" x="0px" y="0px"
	 viewBox="0 0 14.875 18.633" style="enable-background:new 0 0 14.875 18.633;" xml:space="preserve">
<g>
	<path d="M11.375,18.633H3.5c-1.93,0-3.5-1.57-3.5-3.5v-4.957C0,9.053,0.553,8,1.464,7.346C1.376,6.93,1.332,6.515,1.332,6.107
		C1.332,2.74,4.071,0,7.438,0c3.367,0,6.107,2.74,6.107,6.107c0,0.407-0.044,0.822-0.132,1.238c0.91,0.654,1.462,1.708,1.462,2.83
		v4.957C14.875,17.062,13.305,18.633,11.375,18.633z M7.438,1C4.622,1,2.332,3.291,2.332,6.107c0,0.437,0.062,0.886,0.184,1.336
		c0.06,0.221-0.037,0.454-0.236,0.566C1.49,8.455,1,9.285,1,10.176v4.957c0,1.379,1.121,2.5,2.5,2.5h7.875
		c1.379,0,2.5-1.121,2.5-2.5v-4.957c0-0.89-0.489-1.72-1.277-2.167c-0.199-0.112-0.296-0.345-0.236-0.565
		c0.122-0.45,0.184-0.899,0.184-1.336C12.545,3.291,10.254,1,7.438,1z M11.344,7.676H3.5c-0.223,0-0.448-0.146-0.51-0.36
		c-0.135-0.47-0.197-0.874-0.197-1.272c0-2.544,2.069-4.613,4.613-4.613c2.545,0,4.615,2.069,4.615,4.613
		c0,0.395-0.062,0.799-0.197,1.27C11.764,7.527,11.567,7.676,11.344,7.676z M7.406,2.43c-1.992,0-3.613,1.621-3.613,3.613
		c0,0.201,0.022,0.408,0.068,0.635l7.091-0.002c0.047-0.228,0.069-0.434,0.069-0.633C11.021,4.051,9.399,2.43,7.406,2.43z" fill="#C0C0C0"/>
	<path d="M9.188,15.947h-3.5c-0.161,0-0.312-0.077-0.406-0.209c-0.094-0.131-0.119-0.299-0.067-0.451l0.711-2.103
		c-0.389-0.389-0.612-0.918-0.612-1.478c0-1.154,0.939-2.094,2.094-2.094S9.5,10.553,9.5,11.707c0,0.537-0.203,1.04-0.567,1.426
		l0.729,2.154c0.052,0.152,0.026,0.32-0.067,0.451C9.5,15.87,9.349,15.947,9.188,15.947z M6.385,14.947H8.49l-0.61-1.807
		c-0.069-0.205,0.001-0.432,0.175-0.562c0.283-0.21,0.445-0.528,0.445-0.872c0-0.604-0.49-1.094-1.094-1.094
		s-1.094,0.49-1.094,1.094c0,0.36,0.179,0.697,0.478,0.901c0.185,0.127,0.264,0.361,0.191,0.573L6.385,14.947z" fill="#C0C0C0"/>
</g>
<g>
</g>
<g>
</g>
<g>
</g>
<g>
</g>
<g>
</g>
<g>
</g>
<g>
</g>
<g>
</g>
<g>
</g>
<g>
</g>
<g>
</g>
<g>
</g>
<g>
</g>
<g>
</g>
<g>
</g>
</svg>
