<?xml version="1.0" encoding="iso-8859-1"?>
<!-- Generator: Adobe Illustrator 18.0.0, SVG Export Plug-In . SVG Version: 6.00 Build 0)  -->
<!DOCTYPE svg PUBLIC "-//W3C//DTD SVG 1.1//EN" "http://www.w3.org/Graphics/SVG/1.1/DTD/svg11.dtd">
<svg version="1.1" id="Capa_1" xmlns="http://www.w3.org/2000/svg" xmlns:xlink="http://www.w3.org/1999/xlink" x="0px" y="0px"
	 viewBox="0 0 14.875 18.876" style="enable-background:new 0 0 14.875 18.876;" xml:space="preserve">
<g>
	<path d="M9.188,15.981h-3.5c-0.161,0-0.312-0.078-0.406-0.209s-0.119-0.299-0.067-0.451l0.711-2.101
		c-0.389-0.389-0.612-0.919-0.612-1.479c0-1.154,0.939-2.094,2.094-2.094S9.5,10.587,9.5,11.741c0,0.538-0.203,1.042-0.567,1.427
		l0.729,2.153c0.052,0.152,0.026,0.32-0.067,0.451S9.349,15.981,9.188,15.981z M6.385,14.981H8.49l-0.61-1.805
		c-0.069-0.205,0.001-0.432,0.175-0.562c0.283-0.21,0.445-0.529,0.445-0.874c0-0.604-0.49-1.094-1.094-1.094
		s-1.094,0.49-1.094,1.094c0,0.361,0.179,0.699,0.478,0.903c0.185,0.127,0.264,0.361,0.191,0.573L6.385,14.981z" fill="#FF9900"/>
	<path d="M11.375,18.876H3.5c-1.93,0-3.5-1.57-3.5-3.5v-4.957c0-1.309,0.747-2.504,1.897-3.1C1.462,5.17,2.211,2.92,3.87,1.486
		C4.979,0.527,6.396,0,7.861,0c1.776,0,3.462,0.771,4.622,2.113c0.342,0.394,0.639,0.849,0.881,1.353
		c0.067,0.139,0.066,0.302-0.003,0.439c-0.068,0.139-0.198,0.237-0.35,0.268c-0.442,0.088-0.826,0.271-1.144,0.546
		c-0.119,0.103-0.29,0.154-0.444,0.121s-0.295-0.126-0.36-0.269c-0.162-0.353-0.331-0.624-0.53-0.855
		C9.847,2.921,8.85,2.465,7.799,2.465c-0.867,0-1.707,0.313-2.364,0.881C4.403,4.237,3.974,5.608,4.29,6.919h7.085
		c1.93,0,3.5,1.57,3.5,3.5v4.957C14.875,17.306,13.305,18.876,11.375,18.876z M7.861,1C6.637,1,5.452,1.441,4.524,2.242
		C3.047,3.52,2.434,5.573,2.962,7.475c0.07,0.251-0.065,0.515-0.311,0.604C1.664,8.438,1,9.379,1,10.419v4.957
		c0,1.379,1.121,2.5,2.5,2.5h7.875c1.379,0,2.5-1.121,2.5-2.5v-4.957c0-1.379-1.121-2.5-2.5-2.5H3.916
		c-0.214,0-0.403-0.136-0.473-0.337C2.825,5.785,3.35,3.826,4.78,2.59c0.84-0.726,1.911-1.125,3.019-1.125
		c1.342,0,2.614,0.583,3.491,1.598c0.146,0.17,0.279,0.353,0.402,0.558c0.156-0.093,0.318-0.173,0.485-0.24
		c-0.137-0.22-0.287-0.425-0.45-0.611C10.757,1.645,9.348,1,7.861,1z" fill="#FF9900"/>
</g>
<g>
</g>
<g>
</g>
<g>
</g>
<g>
</g>
<g>
</g>
<g>
</g>
<g>
</g>
<g>
</g>
<g>
</g>
<g>
</g>
<g>
</g>
<g>
</g>
<g>
</g>
<g>
</g>
<g>
</g>
</svg>
