<?xml version="1.0" encoding="utf-8"?>
<!-- Generator: Adobe Illustrator 18.0.0, SVG Export Plug-In . SVG Version: 6.00 Build 0)  -->
<!DOCTYPE svg PUBLIC "-//W3C//DTD SVG 1.1//EN" "http://www.w3.org/Graphics/SVG/1.1/DTD/svg11.dtd">
<svg version="1.1" id="Capa_1" xmlns:sketch="http://www.bohemiancoding.com/sketch/ns"
	 xmlns="http://www.w3.org/2000/svg" xmlns:xlink="http://www.w3.org/1999/xlink" x="0px" y="0px" viewBox="0 0 32 32"
	 enable-background="new 0 0 32 32" xml:space="preserve">
<title>icon 145 tag cord</title>
<desc>Created with Sketch.</desc>
<g>
	<path d="M29.4,19.4L16,6h-5.2c0.1,0.2,0.1,0.4,0.2,0.6c0.4,1.9,0.7,3,1,3.4c0,0,0,0,0,0c0.6,0.2,1.1,0.8,1.1,1.4
		c0,0.8-0.7,1.5-1.5,1.5c0,0,0,0-0.1,0c0,0,0,0,0,0C9.6,12.8,8.8,11.3,8,7.3C7.9,6.8,7.7,6.4,7.5,6.1C6.7,6.3,6,7.1,6,8v8l13.4,13.4
		c0.8,0.8,2.1,0.8,2.8,0l7.2-7.2C30.2,21.5,30.2,20.2,29.4,19.4z" fill="#FF6600"/>
	<path d="M9,7.1c0.8,4.1,1.4,5,3,5v-1c-1,0-1.3-0.5-2.1-4.2c-0.9-4.4-5.6-5-7.4-2.1C1.1,7.1,2.6,11,5,11v-1c-1.6,0-2.6-3-1.6-4.7
		C4.8,3.2,8.3,3.6,9,7.1z" fill="#FF6600"/>
</g>
</svg>
