<?xml version="1.0" encoding="utf-8"?>
<!-- Generator: Adobe Illustrator 16.0.4, SVG Export Plug-In . SVG Version: 6.00 Build 0)  -->
<!DOCTYPE svg PUBLIC "-//W3C//DTD SVG 1.1//EN" "http://www.w3.org/Graphics/SVG/1.1/DTD/svg11.dtd">
<svg version="1.1" id="Layer_1" xmlns="http://www.w3.org/2000/svg" xmlns:xlink="http://www.w3.org/1999/xlink" x="0px" y="0px"
	 width="50px" height="50px" viewBox="0 0 50 50" enable-background="new 0 0 50 50" xml:space="preserve">
<path id="path3110_1_" d="M12.966,23.795h4.561v11.512h-4.561V23.795z M30.078,13.451v9.342h6.953v11.514l-2.244,2.241h-7.099
	l-4.486-2.317h-4.706v-9.194h4.706l4.558-11.585H30.078L30.078,13.451z M18.497,24.071v-0.272c0-0.535-0.433-0.968-0.968-0.968
	h-4.561c-0.534,0-0.968,0.433-0.968,0.968v11.512c0,0.535,0.435,0.969,0.968,0.969h4.561c0.535,0,0.968-0.434,0.968-0.969v-0.123
	h4.465l4.292,2.228c0.135,0.067,0.285,0.103,0.436,0.103h7.1c0.256,0,0.502-0.103,0.684-0.283l2.242-2.243
	C37.898,34.809,38,34.561,38,34.305V22.792c-0.002-0.534-0.465-0.965-0.998-0.965h-5.955V13.45c0-0.535-0.432-0.968-0.967-0.968
	c-0.01,0-0.021,0-0.031,0h-2.317c-0.388,0.012-0.729,0.607-0.871,0.968l-4.312,10.623" fill="#FF6600"/>
</svg>
