<?xml version="1.0" encoding="utf-8"?>
<!-- Generator: Adobe Illustrator 16.0.4, SVG Export Plug-In . SVG Version: 6.00 Build 0)  -->
<!DOCTYPE svg PUBLIC "-//W3C//DTD SVG 1.1//EN" "http://www.w3.org/Graphics/SVG/1.1/DTD/svg11.dtd">
<svg version="1.1" id="Layer_1" xmlns="http://www.w3.org/2000/svg" xmlns:xlink="http://www.w3.org/1999/xlink" x="0px" y="0px"
	 width="50px" height="50px" viewBox="0 0 50 50" enable-background="new 0 0 50 50" xml:space="preserve">
<path id="path3110_2_" d="M37.033,26.205h-4.561V14.693h4.561V26.205z M19.921,36.549v-9.342h-6.952V15.694l2.243-2.242h7.099
	l4.485,2.318h4.707v9.194h-4.707l-4.558,11.585H19.921L19.921,36.549z M31.504,25.929v0.272c0,0.535,0.433,0.968,0.968,0.968h4.562
	c0.533,0,0.967-0.433,0.967-0.968V14.689c0-0.535-0.435-0.968-0.967-0.968h-4.562c-0.535,0-0.968,0.433-0.968,0.968v0.124h-4.465
	l-4.292-2.228c-0.135-0.067-0.285-0.103-0.436-0.103h-7.099c-0.257,0-0.503,0.103-0.684,0.284l-2.243,2.243
	C12.102,15.192,12,15.439,12,15.696v11.512c0.002,0.534,0.465,0.965,0.999,0.965h5.954v8.377c0,0.535,0.432,0.968,0.967,0.968
	c0.01,0,0.021,0,0.031,0h2.318c0.388-0.012,0.73-0.606,0.871-0.968l4.312-10.623"/>
</svg>
